<?xml version="1.0" encoding="utf-8"?>
<!-- Generator: Adobe Illustrator 16.0.0, SVG Export Plug-In . SVG Version: 6.00 Build 0)  -->
<!DOCTYPE svg PUBLIC "-//W3C//DTD SVG 1.1//EN" "http://www.w3.org/Graphics/SVG/1.1/DTD/svg11.dtd">
<svg version="1.1" id="Calque_1" xmlns="http://www.w3.org/2000/svg" xmlns:xlink="http://www.w3.org/1999/xlink" x="0px" y="0px"
	 width="1133.858px" height="566.929px" viewBox="0 0 1133.858 566.929" enable-background="new 0 0 1133.858 566.929"
	 xml:space="preserve">
<g>
	<path fill="#0041D7" d="M539.688,474.885c-1.555,0-2.745-1.536-2.745-3.438V73.76c0-1.9,1.19-3.436,2.745-3.436
		c1.574,0,2.802,1.536,2.802,3.436v397.688C542.49,473.349,541.263,474.885,539.688,474.885"/>
	<g>
		<path fill-rule="evenodd" clip-rule="evenodd" fill="#0041D7" d="M147.087,330.209c3.667-1.517,7.237,2.782,9.752,4.626
			c-1.69,12.035,3.935,23.457,4.568,37.873c6.008-7.985,9.77-18.122,14.435-27.43c0.249-2.459-0.538-5.761,0.671-7.275
			c2.898-0.998,6.584,1.228,9.118,2.648c-0.173,3.397-2.726,7.718-4.607,11.767c-4.012,9.33-8.771,20.001-13.033,30.06
			c-0.441,1.172-0.23,2.955-0.615,3.974c-1.151,2.188-3.608,7.197-3.915,11.805c-0.346,4.185,2.227,9.156-2.054,12.381
			c-4.377-1.555-8.983-7.026-9.751-12.381c-0.671-4.263,0.94-10.499,0.614-16.354c-0.671-15.452-1.863-33.533-3.186-49.024
			C148.393,331.897,148.393,330.363,147.087,330.209"/>
		<path fill="#0041D7" d="M161.542,411.403l-0.365-0.094c-4.856-1.747-9.424-7.602-10.231-12.996
			c-0.307-2.266-0.057-5.163,0.269-8.042c0.269-2.746,0.538-5.663,0.384-8.369c-0.653-14.953-1.786-32.711-3.206-48.775
			c-0.23-0.385-0.345-0.71-0.538-1.076c-0.269-0.785-0.441-1.112-0.883-1.152l-2.61-0.364l2.476-0.979
			c0.576-0.269,1.209-0.364,1.862-0.364c2.554,0,4.952,2.055,6.891,3.629c0.634,0.518,1.172,1.016,1.67,1.381l0.384,0.269
			l-0.076,0.423c-0.96,6.774,0.441,13.57,1.899,20.578c1.056,4.895,2.131,9.828,2.515,15.183c3.686-5.299,6.545-11.518,9.367-17.621
			c1.209-2.611,2.515-5.375,3.801-7.965c0.077-0.672,0.039-1.595,0-2.382c0-1.996-0.173-3.953,0.825-5.087l0.115-0.174h0.211
			c0.596-0.305,1.249-0.383,1.862-0.383c2.572,0,5.22,1.479,7.313,2.669l0.882,0.575v0.403c-0.154,2.668-1.593,5.721-3.167,8.944
			c-0.499,1.019-0.998,2.075-1.459,3.033l-2.361,5.318c-3.571,8.139-7.275,16.546-10.73,24.799
			c-0.173,0.405-0.192,1.132-0.269,1.748c-0.038,0.729-0.115,1.592-0.346,2.188l-0.076,0.173c-1.171,2.283-3.417,7.024-3.839,11.4
			c-0.077,1.191,0.077,2.477,0.23,3.762c0.384,3.167,0.787,6.644-2.515,9.062L161.542,411.403z M148.815,330.612
			c0.096,0.286,0.269,0.653,0.364,0.9c0.096,0.366,0.308,0.731,0.441,0.94l0.192,0.155v0.212
			c1.344,16.104,2.496,34.051,3.244,49.023c0.078,2.859-0.134,5.759-0.46,8.543c-0.307,2.88-0.538,5.586-0.287,7.812
			c0.787,5.107,5.201,10.079,9.021,11.633c2.322-2.015,2.053-4.723,1.593-7.64c-0.134-1.305-0.308-2.706-0.191-3.993
			c0.383-4.685,2.764-9.56,3.954-11.9l0.077-0.174c0.115-0.347,0.21-1.018,0.21-1.649c0.077-0.749,0.077-1.536,0.423-2.248
			c3.475-8.233,7.122-16.641,10.73-24.799l2.304-5.316c0.422-1.057,0.959-2.093,1.497-3.11c1.42-2.84,2.707-5.664,2.956-7.928
			l-0.115-0.135c-2.38-1.286-5.451-2.976-7.812-2.284c-0.557,0.863-0.442,2.419-0.403,3.974c0,0.885,0.038,1.823,0,2.706
			l-0.039,0.193c-1.363,2.648-2.649,5.51-3.877,8.138c-3.09,6.758-6.411,13.687-10.653,19.483l-1.17,1.518l-0.039-1.9
			c-0.345-6.144-1.497-11.613-2.629-16.95c-1.536-7.084-2.88-13.879-2.054-20.692c-0.48-0.345-0.921-0.767-1.497-1.228
			C152.865,332.417,150.812,330.63,148.815,330.612"/>
		<path fill-rule="evenodd" clip-rule="evenodd" fill="#0041D7" d="M64.03,198.107c-1.171,5.26-5.951,3.743-9.829,5.26
			c-2.783,1.036-9.674,5.682-13.744,8.522c-5.585,3.801-9.386,7.833-13.724,13.687c-3.897,5.259-11.421,14.492-5.874,24.263
			c20.846-3.225,28.966-21.23,41.826-33.419v-3.858c4.031-2.918,9.732-4.089,15.049-1.382c0.787,3.167-2.189,5.068-3.245,7.832
			c-2.648,7.275-3.224,16.143-3.896,23.533c8.368-4.012,14.166-10.634,19.579-17.679c-0.768,5.874-4.742,10.788-8.446,15.74
			c-3.647,4.818-6.757,10.826-11.133,14.435c-5.145-1.229-5.951-6.853-8.446-10.519c1.497-10.136,2.265-16.163,2.495-26.816
			c-6.565,6.949-11.575,15.434-15.683,24.839c-7.486,5.087-10.519,14.973-20.27,16.393c-19.368,2.822-21.557-24.685-13.744-36.702
			c1.823-2.707,5.336-5.95,8.503-9.04c7.045-6.834,22.229-18.044,30.751-20.291c-0.807-2.13,2.111-0.479,1.344-2.629
			C59.653,191.581,61.879,194.767,64.03,198.107"/>
		<path fill="#0041D7" d="M25.965,259.878c-5.625,0-10.058-2.823-12.918-8.005c-4.473-8.254-3.858-22.036,1.382-29.964
			c1.67-2.477,4.587-5.451,7.448-8.177l1.151-1.037c7.006-6.891,21.786-17.716,30.366-20.27c-0.057-0.308,0-0.557,0.078-0.807
			c0.287-0.537,0.844-0.671,1.267-0.729l0.23-0.057c0-0.058-0.019-0.173-0.077-0.308l-0.576-1.401l1.421,0.48
			c4.376,1.344,6.756,4.722,8.868,8.178l0.173,0.191l-0.134,0.327c-0.844,4.108-3.896,4.511-6.68,4.953
			c-1.19,0.153-2.418,0.345-3.513,0.748c-3.033,1.094-11.152,6.757-13.59,8.465c-5.203,3.609-9.098,7.372-13.514,13.571
			l-0.614,0.768c-3.744,5.087-10.116,13.533-5.51,22.228c14.55-2.418,22.9-12.438,30.982-22.094
			c3.128-3.667,6.219-7.447,9.75-10.788v-3.954l0.308-0.25c4.703-3.302,10.749-3.877,15.816-1.401l0.308,0.153v0.307
			c0.671,2.342-0.577,4.031-1.709,5.72c-0.614,0.826-1.19,1.689-1.517,2.496c-2.303,6.314-3.033,13.954-3.627,20.673l-0.173,1.497
			c7.755-4.05,13.245-10.557,18.294-16.95l1.573-1.996l-0.365,2.591c-0.729,5.51-4.261,10.231-7.698,14.8l-0.902,1.209
			c-1.113,1.44-2.168,3.013-3.205,4.568c-2.38,3.667-4.896,7.409-8.062,9.847l-0.25,0.288l-0.384-0.058
			c-3.857-0.922-5.355-4.089-6.853-7.179c-0.615-1.248-1.248-2.515-1.997-3.57l-0.191-0.269v-0.269
			c1.536-9.406,2.265-15.394,2.61-24.838c-5.509,6.084-10.173,13.687-14.281,23.303l-0.057,0.211l-0.23,0.095
			c-2.802,1.823-4.952,4.492-7.083,7.025c-3.57,4.204-7.217,8.542-13.494,9.444C27.827,259.742,26.906,259.878,25.965,259.878
			 M54.778,192.329c0,0.096,0.038,0.192,0.038,0.192l0.288,0.845l-0.729,0.191c-8.292,2.15-23.283,13.13-30.367,20.079l-1.229,1.094
			c-2.726,2.784-5.643,5.566-7.179,7.909c-4.99,7.658-5.604,20.692-1.286,28.582c1.785,3.282,5.221,7.255,11.652,7.255
			c0.844,0,1.708-0.172,2.61-0.249c5.778-0.768,9.118-4.761,12.516-8.926c2.207-2.515,4.472-5.241,7.313-7.179
			c4.512-10.365,9.674-18.542,15.798-24.858l1.248-1.382l-0.096,1.824c-0.172,10.5-0.979,16.719-2.534,26.643
			c0.71,1.114,1.286,2.361,1.9,3.532c1.363,2.783,2.706,5.528,5.644,6.334c2.88-2.457,5.221-5.932,7.505-9.349
			c1.076-1.574,2.112-3.205,3.226-4.664l0.998-1.248c2.688-3.551,5.375-7.179,6.66-11.133c-4.836,5.912-10.364,11.824-17.871,15.376
			l-1.132,0.556l0.288-3.955c0.71-6.852,1.382-14.588,3.743-21.018c0.442-1.076,1.076-2.016,1.729-2.899
			c1.056-1.42,1.9-2.649,1.631-4.223c-4.434-2.035-9.674-1.517-13.763,1.229v3.839l-0.192,0.211
			c-3.531,3.321-6.757,7.237-9.847,10.922c-8.408,9.982-16.987,20.271-32.363,22.689l-0.479,0.038l-0.269-0.422
			c-5.471-9.636,1.324-18.773,5.355-24.225l0.634-0.767c4.625-6.277,8.484-10.154,13.897-13.955
			c3.091-2.131,10.788-7.39,13.84-8.503c1.208-0.519,2.59-0.71,3.742-0.864c2.726-0.403,4.799-0.71,5.528-3.647
			c-1.785-2.879-3.647-5.489-6.929-6.891c-0.039,0.077-0.039,0.134-0.039,0.23c-0.327,0.518-0.864,0.633-1.267,0.69L54.778,192.329z
			"/>
		<path fill-rule="evenodd" clip-rule="evenodd" fill="#0041D7" d="M391.654,67.981c0.384-0.556,0.671-1.074,0.671-1.977
			c0.423,0.365,1.056,0.652,1.92,0.652C394.131,67.809,393.113,68.136,391.654,67.981"/>
		<path fill="#0041D7" d="M392.326,68.769c-0.21,0-0.518,0-0.729-0.058l-1.113-0.192l0.595-0.902
			c0.307-0.538,0.595-0.921,0.595-1.613l-0.077-1.267l1.113,0.691c0.403,0.307,0.807,0.538,1.536,0.538h0.845l-0.077,0.806
			C394.956,67.368,394.457,68.769,392.326,68.769"/>
		<path fill-rule="evenodd" clip-rule="evenodd" fill="#0041D7" d="M390.272,68.654c2.111,0.71-0.211,2.226-0.518,2.572
			C387.681,70.631,390.445,69.498,390.272,68.654"/>
		<path fill="#0041D7" d="M389.985,72.052l-0.499-0.115c-0.173-0.057-0.979-0.365-1.229-0.998c-0.172-0.73,0.364-1.287,0.825-1.748
			c0.231-0.153,0.48-0.422,0.48-0.537l-0.134-1.095l1.094,0.384c0.748,0.307,1.132,0.71,1.248,1.171
			c0.269,0.979-0.691,1.824-1.248,2.38c-0.096,0.038-0.25,0.096-0.25,0.096L389.985,72.052z"/>
		<path fill-rule="evenodd" clip-rule="evenodd" fill="#0041D7" d="M391.654,80.421c0.173-0.903,1.632-0.576,2.591-0.653
			C394.131,81.284,392.479,81.265,391.654,80.421"/>
		<path fill="#0041D7" d="M393.036,81.688c-0.71,0-1.382-0.307-1.823-0.749l-0.269-0.269l0.039-0.403
			c0.288-1.133,1.612-1.133,2.054-1.133h0.787c0.135,0,0.308,0,0.346-0.115l0.921-0.038l-0.077,0.864
			C394.841,80.997,394.092,81.688,393.036,81.688"/>
		<path fill-rule="evenodd" clip-rule="evenodd" fill="#0041D7" d="M395.014,66.657c3.436,1.575,6.085,3.878,9.098,5.855
			c-3.071,1.766-6.757-4.895-9.866-3.148C392.729,69.057,395.052,67.56,395.014,66.657"/>
		<path fill="#0041D7" d="M402.961,73.568c-1.382,0-2.803-1.056-4.281-2.073c-1.382-1.094-3.013-2.131-4.05-1.594l-0.25,0.135
			h-0.211c-0.576-0.135-0.903-0.346-1.056-0.672c-0.289-0.653,0.268-1.268,0.652-1.939c0.192-0.192,0.48-0.614,0.48-0.614
			l-0.077-1.228l1.037,0.422c2.783,1.151,4.895,2.802,7.064,4.357c0.691,0.595,1.439,1.095,2.246,1.575l0.883,0.69l-0.979,0.557
			C403.997,73.337,403.536,73.568,402.961,73.568 M395.321,68.309c1.497,0,2.917,1.094,4.299,2.053
			c0.788,0.595,1.517,1.133,2.265,1.518c-0.134-0.136-0.307-0.308-0.499-0.384c-1.997-1.459-3.8-2.784-6.046-3.84
			c-0.193,0.23-0.269,0.461-0.404,0.653l-0.077,0.057C395.071,68.309,395.147,68.309,395.321,68.309"/>
		<path fill-rule="evenodd" clip-rule="evenodd" fill="#0041D7" d="M391.041,85.623c0.71-0.192,2.226,1.919,0.614,1.996
			c-1.286-2.937-3.801-0.441-4.568-3.973c1.843-0.729,4.396-0.768,4.568-3.225c-0.71-0.173-0.384-0.749,0-1.287
			c-1.862-0.94-2.284-2.323-4.568-3.954c0.767-2.246-0.499-2.764,0.634-3.954c-0.192,1.113,0.883,1.766,1.286,0.672
			c-2.822-1.171,1.171-2.208-0.633-3.244c-1.229,1.555-2.342-1.287-1.286,1.977c-0.825-1.862-4.895-0.365-4.588-3.263
			c0.825-1.152,5.854-1.804,8.542,0c0.038-1.631,0.038-3.225-0.768-3.935c2.246,2.074,2.764-1.209,3.973-2.015
			c-0.307-1.133-3.033,0.038-3.205-1.305c2.092-0.442-0.135-3.072,2.571-1.306c-3.339-4.549-5.47-10.385-10.422-13.706
			c-6.7-4.357-25.78-7.159-34.686-7.87c-5.567-0.441-11.364,1.171-15.683-1.248c-8.926,3.283-18.542,4.646-30.078,3.819
			c-14.972-0.844-30.636-3.742-45.128-4.453c-5.47-0.384-10.884,0.172-16.354,0c-12.669-0.749-25.338-2.668-37.258-2.016
			c-40.579,2.361-72.692,14.338-102.062,34.647c2.553-0.172,4.146,3.187,5.874,3.917c1.669,0.614,5.259,0.864,7.199,1.344
			c21.786,3.782,55.166,8.599,80.447,11.094c15.721,1.498,32.267,0.922,47.105,5.222c0.134,3.743-1.804,4.012-2.899,8.829
			c-0.402,1.152-0.979,3.033-1.325,3.34c-1.132,10.577-5.682,15.663-8.119,27.084c-0.998,3.187-2.399,5.279-3.321,7.833
			c-0.96,2.438-2.226,4.606-2.63,5.912c-0.402,0.922-4.914,10.941-4.05,15.664c-2.15,0.134-2.054,2.687-3.877,3.225
			c-2.323,10.327-8.216,15.586-12.381,25.53c-2.265,4.05-4.281,7.582-6.546,11.133c-3.454,5.49-7.716,11.383-11.785,17.641
			c-7.947,12.4-15.875,24.569-24.781,35.338c-5.816,6.892-13.207,14.935-21.69,17.641c-6.373-2.995-5.26-11.077-4.55-17.007
			c0.326-1.862-0.173-3.743,0-4.549c3.187-13.437,16.335-24.206,21.614-33.362c17.89-18.312,34.82-44.706,47.104-69.314
			c2.419-4.799,2.842-10.096,4.53-14.473c2.88-6.296,4.127-11.076,6.527-16.239c1.689-1.478,4.741-4.242,2.611-7.198
			c-2.707-0.538-4.396,2.418-7.122,3.263c-1.536,0.422-3.437-0.269-4.626,0.652c-2.994,2.361-3.705,4.626-5.835,7.812
			c-6.104,4.875-14.934,19.579-19.618,30.117c0.749-0.269,0.749,0.729,1.479,0.02c1.497-1.44,3.608-5.145,4.357-6.547
			c1.228-2.207,2.208-5.527,3.32-7.812c6.104-5.759,9.405-14.166,19.599-15.779c-3.187,6.814-5.086,14.128-8.465,20.942
			c-0.691,1.498-2.533,2.553-3.32,3.897c-0.96,1.689-1.094,3.57-1.901,5.278c-11.958,21.96-26.719,43.113-42.594,58.815
			c1.92-2.918,4.415-6.988,5.471-10.193c0.614-0.652,0.691-1.9,1.727-2.208c2.591-8.215,7.621-14.741,10.826-23.073
			c2.342-5.413,4.147-10.135,6.815-12.88c0.806-2.054,1.401-2.534,1.401-5.413c1.056-1.094,3.686-4.357,1.286-5.049
			c-2.783,3.686-3.781,8.312-6.161,11.556c-0.441,2.188-1.421,2.265-2.419,5.566c-0.979,2.092-1.805,3.033-2.592,4.415
			c-3.167,8.503-7.658,14.55-12.399,23.591c-0.653,0.883-0.653,0.883-1.324,2.515c-4.55,8.331-8.177,16.911-13.053,24.858
			c-16.834,11.804-24.935,32.229-47.719,37.987c1.189-14.416,4.434-29.484,9.809-40.502c-1.939-2.035-5.72-2.169-9.809-1.996
			c-0.231,4.261-2.515,5.815-1.978,8.446c0.115-0.671-0.096-1.843,0.672-1.9c-0.345,9.77-7.947,22.094-6.565,32.075
			c0.499,3.916,3.877,5.106,4.569,9.099c-7.966,0.806-18.063,2.457-24.225,1.325c0.172,2.917,3.244,2.917,4.626,4.549
			c1.094,3.417,0.614,7.697,0,11.153h-3.282c6.258,4.856-2.035,11.306,1.9,19.656c-0.365,1.708-1.19,3.07-1.9,4.51
			c3.225,32.921-12.4,54.785-8.446,86.937c-1.075,1.708-1.344,3.974-1.344,6.584c1.498,0.44,2.956,0.996,5.203,0.71
			c4.491,5.547,11.574,8.407,20.96,9.118c-1.152,2.15-3.744,2.784-5.259,4.587c11.689-2.592,28.965-7.14,34.014-20.249
			c-0.671,8.636,2.764,13.454,6.565,18.887c2.016,3.013,4.549,7.142,7.832,7.18c2.917-3.649,0.634-7.18,0.634-11.096
			c0-11.902,3.417-26.22,3.993-35.914c0.019-1.401-0.864-3.34-0.729-4.625c0,0,1.094-0.578,1.382-1.268
			c0.288-1.403,0.46-3.342,0.576-4.569c1.612-15.972,1.996-31.787-9.137-37.335c0.768,15.625-2.284,33.131-6.546,48.431
			c2.092-35.666-17.333-51.426-38.582-65.381c5.797-4.106,20.001,3.993,25.529-1.996c-5.528-5.316-19.637-2.188-26.201-6.584
			c-0.346-4.74,0-6.391,0-11.709c8.503-5.854,23.36,0.922,33.419-3.282c-5.644-7.66-21.807-3.628-32.037-5.183
			c1.977-4.031-0.097-4.376,0-7.216c6.123-0.922,12.707-2.208,19.56-1.345c6.143,0.844,12.189,4.376,18.312,5.912
			c4.588,1.209,9.348-0.269,12.439,3.283c1.075,8.407-1.114,16.7-1.267,23.534c-0.153,3.225,2.092,6.181,0,8.444
			c2.745-0.901,5.433,4.128,7.773,3.283c0-7.371,2.573-16.317,2.573-24.147c0.096-3.513-0.154-8.255,2.687-9.809
			c10.96,1.4,22.785,6.757,33.995,3.897c-2.131-7.928-12.458-7.505-19.618-10.462c8.925-10.46,18.254-20.5,24.819-33.341
			c-0.269,6.891-4.646,13.955-3.935,20.289c0.269,1.612,2.649,4.491,3.935,7.198c2.745,5.51,4.415,10.922,9.847,9.791
			c2.246-7.871,6.699-13.264,9.194-20.942c1.651-0.192,3.397-0.921,3.244-4.53c2.842,0.826,1.382-2.553,3.916-1.938
			c1.612-5.797,2.093-9.176,4.607-14.454c0,2.418-0.671,4.184-1.325,5.931c4.876,0.346,4.53-7.563,3.264-11.114
			c-2.477,0.71-2.918,5.183-3.916,6.526c0.384-0.518-2.17,0.826-1.978,0.691c-3.935,3.609-5.72,9.119-9.195,13.034
			c-3.57,4.07-9.002,7.793-13.071,10.52c0-10.961,2.918-19.061,4.626-28.217c0.979-0.211,0.499-2.054,2.534-1.305
			c2.821-10.193,3.513-22.728,11.21-28.141c2.208-0.844,3.013,3.033,4.549,0.73c-1.306-2.092-2.054-3.225-3.935-3.283
			c10.308-12.305,18.082-27.296,24.877-43.17c0.537-1.862,11.018-39.754,11.075-40.521c-1.208-0.844,0.749-4.031,0-6.526
			l5.26-14.454c0.615-1.978,2.112-5.394,3.301-6.565c23.092,4.376,44.859,10.096,69.295,13.091
			c3.551,4.089,8.408,4.799,15.645,4.626c16.085-0.384,32.555-7.16,44.514-9.79c1.747-2.016,0.672-3.801,3.283-3.954
			c1.881,0.614-1.536,1.036-0.729,2.591c5.048-1.997,6.584-0.96,12.476-3.878c1.824-2.476,0-6.046,1.977-5.912
			C393.958,87.024,392.038,84.029,391.041,85.623 M79.06,315.83c5.394,2.401,12.592,7.373,16.373,12.459
			c7.582,10.231,9.694,31.135,7.871,45.704c-1.439,11.153-7.122,21.076-12.477,27.467c-10.02,0.425-19.253,0.155-24.225-4.547
			c3.647-3.667,3.244-6.737,3.993-13.764c0.767-7.333,2.284-12.189,3.301-21.537c1.286-13.61,5.029-27.717,3.839-43.841v-1.941
			H79.06z M117.027,269.398c-3.801-2.975-9.098-4.454-15.087-5.259c8.485-4.511,17.929-8.216,24.244-15.049
			c1.479-1.189-0.921,2.995-1.325,3.935c0.097,1.536-0.229,3.091,0,4.625c0.672,5.875,3.532,9.444,5.932,13.707
			C127.47,272.719,122.307,269.667,117.027,269.398"/>
		<path fill="#0041D7" d="M127.815,419.851l-0.403-0.075c-3.34-0.078-5.816-3.649-7.774-6.584l-0.615-0.827
			c-3.263-4.683-6.392-9.156-6.717-16.143c-5.99,10.461-19.964,14.857-33.074,17.734l-2.035,0.425l1.287-1.574
			c0.748-0.902,1.612-1.461,2.553-2.034c0.71-0.538,1.42-0.941,1.997-1.537c-8.945-0.824-15.722-3.838-19.963-8.963
			c-1.862,0.153-3.244-0.231-4.492-0.578l-1.152-0.249l0.039-0.651c0-2.995,0.499-5.087,1.248-6.642
			c-1.939-16.296,1.19-30.253,4.184-43.689c2.899-13.281,5.893-26.912,4.357-43.055l-0.019-0.136l0.077-0.171
			c0.173-0.364,0.288-0.691,0.48-0.998c0.538-1.074,1.075-2.093,1.324-3.225c-1.805-4.128-0.96-7.639-0.192-10.808
			c0.864-3.378,1.535-6.027-1.363-8.35l-1.651-1.285h4.741c0.442-2.86,0.921-6.834-0.057-10.04c-0.423-0.422-1.019-0.749-1.67-1.095
			c-1.325-0.71-2.938-1.478-3.014-3.819v-0.883l0.863,0.173c1.382,0.23,3.014,0.422,5.068,0.422c4.088,0,8.964-0.595,13.629-1.132
			c1.555-0.192,3.09-0.384,4.473-0.576c-0.423-1.325-1.191-2.38-1.938-3.456c-1.095-1.324-2.15-2.783-2.496-4.914
			c-0.749-5.739,1.267-12.093,3.359-18.312c1.305-4.127,2.63-8.081,3.071-11.748h-0.5c-0.287-1.555,0.23-2.822,0.769-4.126
			c0.556-1.152,1.152-2.496,1.189-4.511l0.058-0.672h0.652c0.883-0.077,1.69-0.077,2.515-0.077c3.877,0,6.258,0.71,7.832,2.208
			l0.326,0.346l-0.192,0.479c-4.856,9.886-8.369,24.167-9.636,39.274c13.514-3.743,21.921-12.977,30.041-21.959
			c4.953-5.414,10.059-11.153,16.316-15.51c2.802-4.626,5.241-9.578,7.601-14.358c1.728-3.436,3.513-6.986,5.413-10.46
			c0.577-1.518,0.577-1.575,1.286-2.611c1.708-3.167,3.359-6.065,4.991-8.811c2.822-4.76,5.375-9.175,7.39-14.55
			c0.346-0.595,0.633-1.037,0.921-1.517c0.538-0.787,1.133-1.631,1.69-2.917c0.46-1.67,1.017-2.611,1.478-3.398
			c0.403-0.614,0.71-1.113,0.825-2.054l0.231-0.365c1.017-1.401,1.785-3.263,2.667-5.125c0.922-2.13,1.9-4.338,3.36-6.277
			c5.067-11.038,13.628-25.319,19.694-30.156c0.672-0.941,1.075-1.766,1.536-2.515c1.152-1.978,2.149-3.705,4.492-5.451
			c0.709-0.557,1.554-0.653,2.38-0.653h1.151c0.365,0,0.826,0,1.249-0.115c0.94-0.327,1.823-0.941,2.668-1.536
			c1.42-1.056,2.879-2.111,4.761-1.708h0.364l0.25,0.23c2.323,3.494-1.248,6.738-2.687,8.043c-1.209,2.399-2.054,4.76-2.956,7.255
			c-1.056,2.764-2.092,5.566-3.648,8.811c-0.556,1.728-1.093,3.648-1.535,5.663c-0.71,2.938-1.517,5.969-2.937,8.907
			c-13.514,27.238-30.751,52.518-47.145,69.391c-1.899,3.282-4.722,6.679-7.716,10.365c-5.529,6.641-11.652,14.205-13.764,22.708
			c-0.076,0.307,0,0.864,0.058,1.401c0.058,0.883,0.135,1.958-0.058,3.089c-0.729,5.721-1.804,13.322,3.936,16.182
			c7.946-2.591,14.761-9.886,21.037-17.371c9.042-10.769,17.007-23.169,24.744-35.205c1.996-2.994,3.916-5.892,5.796-8.714
			c2.15-3.091,4.186-6.008,6.027-8.906c2.131-3.532,4.243-7.045,6.469-11.153c1.689-4.051,3.686-7.333,5.644-10.481
			c2.726-4.626,5.297-8.888,6.699-14.876l0.115-0.289l0.365-0.21c0.537-0.154,0.845-0.672,1.305-1.229
			c0.423-0.749,0.94-1.574,2.073-1.881c-0.326-3.109,1.036-8.272,3.897-14.972l0.172-0.364c0.25-0.672,0.595-1.421,1.037-2.419
			c0.538-0.998,1.094-2.188,1.555-3.475c0.461-1.151,0.883-2.111,1.44-3.187c0.652-1.362,1.382-2.821,1.862-4.606
			c1.152-5.183,2.707-9.099,4.165-12.822c1.748-4.319,3.398-8.446,4.012-14.166v-0.23l0.212-0.154
			c0.153-0.25,0.575-1.44,0.825-2.188l0.345-0.959c0.46-2.189,1.152-3.513,1.766-4.569c0.557-1.152,1.113-1.939,1.113-3.475
			c-10.192-2.859-21.287-3.474-32.037-3.993c-4.741-0.307-9.731-0.576-14.511-0.979c-26.145-2.592-60.062-7.659-80.467-11.229
			c-0.652-0.115-1.517-0.23-2.361-0.307c-1.899-0.289-3.877-0.596-4.972-1.056c-0.844-0.308-1.573-1.017-2.303-1.785
			c-0.998-1.037-1.938-2.016-3.128-2.016l-2.591,0.134l2.035-1.478c30.866-21.403,63.421-32.459,102.35-34.686
			c1.67-0.076,3.378-0.191,5.259-0.191c6.334,0,12.996,0.575,19.311,1.151c4.204,0.346,8.542,0.71,12.746,0.921
			c2.783,0.135,5.47,0.096,8.138,0c2.746-0.038,5.49-0.096,8.273,0c7.391,0.384,15.28,1.364,22.823,2.304
			c7.391,0.863,14.992,1.766,22.306,2.284c10.999,0.729,20.539-0.518,29.772-3.782l0.326-0.134l0.211,0.134
			c2.092,1.171,4.53,1.286,6.431,1.286c1.094,0,2.111-0.057,3.206-0.057c1.977-0.115,3.858-0.173,5.815-0.058
			c7.352,0.634,27.814,3.206,34.993,7.966c3.552,2.342,5.739,5.951,7.774,9.406c0.94,1.651,1.843,3.11,2.803,4.473l-0.865,1.018
			c-0.21-0.096-0.441-0.192-0.556-0.23c-0.019,0.249-0.096,0.633-0.384,0.979h0.289c0.902,0,2.016,0.038,2.322,1.094l0.173,0.461
			l-0.461,0.289c-0.268,0.21-0.518,0.633-0.825,1.074c-0.442,0.768-1.113,1.748-2.169,1.748c0.097,0.806,0.02,1.688,0,2.552v1.287
			l-1.095-0.749c-0.921-0.652-2.303-0.998-3.896-0.998c-1.786,0-3.015,0.46-3.456,0.748c0,0.653,0.441,0.826,1.728,1.114
			c0.346,0.058,0.652,0.077,1.018,0.211c0-0.153,0.096-0.269,0.172-0.384l0.115-0.346h0.48c0.173,0,0.345,0.058,0.422,0.115
			c0.268,0.039,0.499,0.115,0.691-0.133l0.402-0.519l0.48,0.345c0.538,0.25,0.769,0.596,0.845,0.979
			c0.077,0.652-0.269,1.171-0.614,1.497c-0.115,0.135-0.25,0.268-0.327,0.404c0,0,0.327,0.076,0.672,0.21l0.692,0.346l-0.212,0.652
			c-0.384,0.787-1.152,1.152-1.766,0.979c0.058,0.46,0.058,1.036-0.096,1.784c0.864,0.691,1.478,1.305,2.074,1.92
			c0.518,0.614,1.094,1.248,1.996,1.612l0.729,0.384l-0.441,0.691c-0.058,0.039-0.173,0.23-0.173,0.23l0.23,0.096l0.058,0.596
			c-0.173,2.476-2.208,3.051-3.801,3.493c-0.23,0.057-0.422,0.057-0.652,0.135c0.307,0.902,0.768,1.036,1.497,1.132
			c0.345,0.019,0.557,0.115,0.845,0.23l0.154-0.173c0.422-0.691,0.959-0.787,1.325-0.787c0.69,0,1.362,0.5,2.072,0.96
			c0.557,0.345,1.19,0.748,1.613,0.748l0.134,0.135l-0.058,1.305c-0.249,0.173-0.288,0.883-0.307,1.401
			c0,1.133-0.058,2.841-1.075,4.242l-0.173,0.191c-3.456,1.709-5.375,2.093-7.39,2.458c-1.44,0.249-2.918,0.633-5.106,1.478
			l-0.576,0.289l-0.307-0.615c-0.173-0.269-0.25-0.519-0.25-0.787c-0.173,0.633-0.46,1.458-1.152,2.207l-0.172,0.211l-0.23,0.058
			c-3.608,0.788-7.678,1.958-12.036,3.263c-9.943,2.938-21.402,6.296-32.651,6.565c-6.929,0.077-12.17-0.422-16.047-4.626
			c-16.086-1.958-31.25-5.202-45.935-8.369c-7.409-1.554-15.068-3.187-22.708-4.665c-1.113,1.229-2.265,4.242-2.918,6.047
			l-5.163,14.281c0.308,1.286,0.058,2.707-0.172,3.858c-0.135,0.614-0.384,1.823-0.173,1.958l0.345,0.231v0.479
			c-0.134,0.96-11.018,40.292-11.191,40.579c-7.773,18.332-15.432,31.903-24.167,42.556c1.363,0.48,2.15,1.805,3.148,3.359
			l0.307,0.403l-0.307,0.365c-0.134,0.307-0.692,1.056-1.516,1.056c-0.653,0-1.152-0.403-1.574-0.806
			c-0.653-0.461-1.132-0.883-1.824-0.634c-5.49,3.858-7.218,12.112-8.906,20.059c-0.499,2.477-1.076,5.125-1.805,7.563l-0.154,0.749
			l-0.69-0.288c-0.346-0.058-0.538-0.096-0.538-0.096c-0.249,0-0.269,0.039-0.48,0.384c-0.21,0.231-0.402,0.672-0.748,0.864
			c-0.441,2.553-1.133,5.01-1.575,7.486c-1.382,5.759-2.764,11.728-2.937,18.85c4.243-2.764,8.773-6.104,11.787-9.617
			c1.535-1.651,2.668-3.705,3.896-5.759c1.593-2.591,3.129-5.202,5.298-7.352l0.057-0.077l0.46,0.556l-0.172-0.614
			c0,0,0.229-0.154,0.422-0.211c0.671-0.307,1.094-0.48,1.382-0.576c0.23-0.422,0.403-0.979,0.595-1.593
			c0.653-1.842,1.44-4.242,3.513-4.837l0.614-0.211l0.193,0.671c0.998,2.726,1.497,7.755-0.327,10.346
			c-0.845,1.248-2.016,1.843-3.628,1.727l-0.384-0.058c-0.345,1.152-0.652,2.438-1.036,3.744c-0.326,1.324-0.672,2.668-1.114,4.243
			l-0.191,0.69l-0.671-0.211c-0.441-0.096-0.615-0.096-0.96,0.634c-0.23,0.595-0.787,1.594-2.072,1.497
			c-0.154,3.187-1.901,4.031-3.437,4.338c-1.113,3.628-2.764,6.776-4.396,9.771c-1.708,3.379-3.475,6.757-4.606,10.73l-0.116,0.46
			l-0.441,0.057c-0.538,0.097-1.133,0.173-1.478,0.173c-4.223,0-6.124-3.992-8.119-8.253c-0.308-0.672-0.614-1.382-0.999-2.112
			c-0.519-1.056-1.229-2.17-1.862-3.244c-1.017-1.651-2.016-3.11-2.054-4.146c-0.48-3.647,0.729-7.525,1.842-11.287
			c0.595-1.804,1.056-3.57,1.479-5.355c-5.72,10.039-13.072,18.562-20.232,26.835l-2.169,2.476c1.766,0.596,3.743,1.152,5.586,1.612
			c5.854,1.402,11.843,2.918,13.513,8.964l0.193,0.711l-0.692,0.153c-2.265,0.575-4.683,0.826-7.16,0.826
			c-5.49,0-11.229-1.325-16.796-2.61c-3.416-0.864-6.775-1.632-10.077-2.131c-2.111,1.421-2.111,5.203-2.111,8.312v0.864
			c0,3.915-0.672,8.1-1.324,12.285c-0.595,4.165-1.268,8.158-1.268,11.824v0.538l-0.441,0.134c-0.269,0.153-0.499,0.211-0.729,0.211
			c-1.267,0-2.323-0.921-3.493-1.861c-1.324-0.941-2.553-1.939-3.667-1.594l-0.691-1.172c0.959-1.111,0.806-2.398,0.269-4.376
			c-0.23-1.189-0.5-2.342-0.5-3.666c0.077-2.36,0.422-4.972,0.768-7.755c0.576-4.933,1.209-10.116,0.576-15.356
			c-1.843-1.958-4.281-2.189-7.141-2.341c-1.555-0.078-3.187-0.154-4.799-0.616c-2.611-0.651-5.222-1.688-7.735-2.667
			c-3.399-1.382-6.949-2.764-10.5-3.224c-1.46-0.211-3.015-0.23-4.742-0.23c-4.223,0-8.427,0.594-12.381,1.152l-1.593,0.307
			c0.039,0.614,0.192,1.113,0.384,1.593c0.422,1.074,0.845,2.304-0.077,4.415c1.574,0.172,3.437,0.345,5.797,0.345
			c1.459,0,2.879-0.115,4.338-0.133c1.536-0.039,2.956-0.039,4.492-0.039c6.795,0,13.533,0.634,16.874,5.221l0.557,0.73
			l-0.883,0.345c-2.419,1.056-5.413,1.498-9.214,1.498c-2.4,0-4.742-0.211-7.103-0.307c-2.265-0.174-4.607-0.404-6.795-0.404
			c-4.415,0-7.39,0.711-9.771,2.247c0,1.842-0.038,3.205-0.038,4.434c-0.097,2.112-0.115,3.761,0,6.507
			c2.975,1.766,7.505,2.169,11.881,2.515c5.394,0.5,10.96,0.94,14.108,3.953l0.519,0.461l-0.499,0.538
			c-1.575,1.651-3.878,2.477-7.218,2.477c-2.245,0-4.741-0.385-7.274-0.787c-4.108-0.634-7.928-0.998-10.097-0.115
			c19.982,13.244,37.738,27.967,37.969,59.179c2.956-11.862,5.778-27.372,4.99-42.345l-0.038-1.171l1.056,0.575
			c11.748,5.799,11.133,22.65,9.617,38.026l-0.039,0.402c-0.135,1.325-0.345,2.978-0.691,4.263
			c-0.153,0.538-0.691,1.189-1.248,1.458c0.019,0.614,0.154,1.268,0.287,1.901c0.25,0.805,0.423,1.65,0.404,2.342
			c-0.289,3.993-1.036,8.695-1.766,13.703c-1.056,7.162-2.208,15.204-2.208,22.211c0,1.132,0.153,2.246,0.346,3.415
			c0.537,2.612,1.036,5.339-1.171,8.141L127.815,419.851z M112.402,392.806l1.362,0.247c-0.556,8.43,2.707,13.092,6.393,18.486
			l0.614,0.825c1.747,2.572,3.82,5.681,6.354,6.065c1.536-2.226,1.151-4.355,0.691-6.814c-0.269-1.15-0.461-2.38-0.461-3.627
			c0-7.064,1.306-15.183,2.265-22.439c0.844-4.952,1.478-9.617,1.69-13.532c0.076-0.559-0.116-1.344-0.289-1.978
			c-0.192-0.883-0.422-1.843-0.326-2.688l0.691,0.098l-0.23-0.636c0.23-0.114,0.806-0.594,0.94-0.883
			c0.25-1.074,0.365-2.744,0.556-3.916v-0.479c1.421-14.417,2.093-30.119-7.717-36.05c0.596,17.333-3.301,35.301-6.603,47.414
			l-1.421-0.232c2.111-35.243-16.892-50.732-38.256-64.745l-0.845-0.575l0.807-0.633c1.344-0.846,2.995-1.307,5.259-1.307
			c2.169,0,4.587,0.365,6.968,0.748c2.38,0.404,4.818,0.769,7.006,0.769c2.515,0,4.376-0.442,5.644-1.517
			c-2.86-2.245-7.832-2.667-12.611-3.091c-4.742-0.403-9.636-0.824-12.88-2.878l-0.289-0.308v-0.287
			c-0.21-2.995-0.172-4.837-0.057-6.969c0.038-1.325,0.057-2.822,0.057-4.838v-0.345l0.289-0.154
			c2.629-1.881,6.007-2.649,10.864-2.649c2.188,0,4.607,0.154,6.872,0.308c2.303,0.115,4.721,0.308,7.025,0.308
			c3.148,0,5.701-0.308,7.87-1.037c-3.225-3.417-9.138-3.879-15.203-3.879c-1.44,0-2.937,0.039-4.434,0.039
			c-1.517,0.039-2.937,0.039-4.396,0.039c-2.86,0-5.067-0.078-6.987-0.441l-0.999-0.173l0.48-0.864
			c1.171-2.208,0.883-3.052,0.46-4.185c-0.23-0.671-0.499-1.439-0.499-2.647v-0.634l2.764-0.423
			c4.165-0.633,8.292-1.247,12.65-1.247c1.747,0,3.378,0.057,4.933,0.249c3.686,0.557,7.333,1.959,10.846,3.38
			c2.438,0.92,5.029,1.937,7.467,2.59c1.613,0.384,3.11,0.423,4.568,0.577c2.995,0.134,6.104,0.345,8.37,2.898l0.134,0.172
			l0.039,0.211c0.672,5.528,0,11.075-0.634,16.028c-0.346,2.688-0.672,5.222-0.691,7.583c0,1.018,0.192,2.187,0.441,3.225
			c0.441,1.515,0.749,3.071,0.135,4.548c1.19,0.154,2.303,1.037,3.358,1.823c0.903,0.77,1.747,1.421,2.458,1.595
			c0.058-3.705,0.69-7.697,1.304-11.518c0.596-4.051,1.287-8.215,1.287-12.093v-0.826c0-3.57,0.077-7.928,3.033-9.637l0.173-0.095
			l0.307,0.038c3.398,0.461,6.91,1.306,10.442,2.111c5.471,1.287,11.019,2.63,16.431,2.63c2.188,0,4.166-0.249,6.047-0.595
			c-1.651-4.645-6.775-5.988-12.227-7.333c-2.265-0.536-4.684-1.113-6.719-2.072l-0.883-0.326l3.417-3.992
			c7.87-9.118,16.085-18.543,21.921-29.964l1.401,0.364c-0.154,3.148-1.152,6.316-2.092,9.501c-1.17,3.762-2.284,7.333-1.824,10.693
			c0.058,0.787,0.94,2.208,1.843,3.589c0.672,1.075,1.362,2.188,1.977,3.417c0.383,0.691,0.652,1.362,0.998,2.112
			c2.15,4.453,3.667,7.888,7.698,7.332c1.074-3.935,2.859-7.293,4.53-10.595c1.594-3.072,3.263-6.238,4.434-9.867l0.154-0.442
			l0.384-0.076c1.42-0.23,2.84-0.653,2.707-3.878l-0.173-0.979l1.094,0.288c0.192,0.039,0.384,0.076,0.614,0.076
			c0.288,0,0.364-0.057,0.594-0.614c0.289-0.594,0.71-1.497,1.901-1.497c0.384-1.305,0.729-2.552,1.018-3.627
			c0.729-2.879,1.343-5.394,2.688-8.427l-0.48-0.25l-0.019,0.595c-0.154,0-0.864,0.346-1.191,0.441
			c-0.21,0.115-0.326,0.173-0.422,0.173c-2.054,2.035-3.531,4.511-4.934,6.988c-1.286,2.054-2.514,4.185-4.107,5.97
			c-3.436,3.916-8.619,7.639-13.188,10.615l-1.094,0.749v-1.305c0-7.89,1.517-14.358,2.937-20.578
			c0.615-2.534,1.152-5.067,1.67-7.773l0.076-0.403l0.423-0.153c0.096-0.02,0.211-0.059,0.384-0.384
			c0.172-0.423,0.614-1.268,1.881-1.076c0.633-2.168,1.113-4.549,1.536-6.813c1.784-8.177,3.55-16.72,9.77-21.019
			c0.404-0.153,0.73-0.21,0.999-0.21c0.999,0,1.728,0.499,2.284,1.017c0.154,0.192,0.518,0.461,0.518,0.461s0.173,0,0.269-0.039
			c-1.19-1.881-1.728-2.476-3.11-2.515h-1.382l0.902-1.171c8.984-10.691,16.853-24.455,24.724-43.017
			c0.671-2.149,9.98-36.183,10.999-40.021c-0.576-0.653-0.308-1.843-0.096-3.091c0.269-1.132,0.499-2.418,0.211-3.417l-0.115-0.229
			l0.115-0.269l5.202-14.358c0.614-1.996,2.168-5.624,3.417-6.814l0.307-0.269l0.441,0.057c7.736,1.401,15.548,3.11,23.072,4.76
			c14.819,3.11,30.022,6.316,46.166,8.35l0.21,0.058l0.231,0.134c3.493,3.974,8.464,4.511,15.106,4.28
			c11.095-0.21,22.324-3.474,32.209-6.449c4.339-1.228,8.35-2.4,11.939-3.263c0.384-0.537,0.634-1.113,0.826-1.67
			c0.269-0.998,0.634-2.168,2.764-2.284h0.135l0.153,0.019c0.268,0.097,0.94,0.308,0.998,0.922c0.154,0.576-0.288,0.883-0.614,1.113
			c1.459-0.46,2.669-0.749,3.858-0.959c1.881-0.384,3.705-0.729,6.757-2.227c0.71-1.017,0.71-2.245,0.71-3.32
			c0-0.615,0-1.248,0.269-1.766c-0.384-0.192-0.71-0.423-1.036-0.691l-0.153-0.019c0.153,0.153,0.153,0.364,0.153,0.518
			c0,0.518-0.346,1.267-1.401,1.325l-0.384,0.019l-0.191-0.442c-0.403-0.844-0.806-1.132-1.44-1.267l-0.346,0.077l0.135-0.134
			c-0.135,0-0.135,0-0.307-0.077c-0.902-0.173-2.284-0.442-2.765-2.726l-0.115-0.557l0.557-0.269
			c0.499-0.173,0.902-0.269,1.363-0.403c1.401-0.403,2.477-0.768,2.783-1.766c-0.23-0.134-0.306-0.288-0.441-0.403
			c-0.076-0.384,0-0.653,0.173-1.056c-0.691-0.403-1.248-1.018-1.728-1.612c-0.595-0.538-1.248-1.249-2.284-2.035l-0.441-0.23
			l0.191-0.519c0.307-0.941,0.25-1.421,0.154-2.016c-0.039-0.595-0.154-1.363,0.729-2.169v-0.039c0-0.057,0.058-0.134,0.058-0.134
			l-0.94,0.346c-0.191-0.461-0.826-0.673-1.709-0.845c-1.286-0.192-3.089-0.596-2.879-2.841v-0.212l0.135-0.133
			c0.709-0.96,2.821-1.344,4.703-1.344c1.343,0,2.629,0.23,3.647,0.614c0-0.979-0.039-1.958-0.499-2.227l0.979-1.132
			c0.479,0.441,0.729,0.479,0.863,0.479c0.326,0,0.671-0.537,1.037-1.037c0.133-0.268,0.211-0.422,0.422-0.634
			c-0.21-0.057-0.384-0.057-0.384-0.057c-0.902-0.019-2.266-0.019-2.457-1.382v-0.633l0.633-0.153
			c0.364-0.058,0.479-0.211,0.479-0.71c0-0.557,0.211-0.921,0.499-1.018c-0.614-1.056-1.208-2.016-1.746-3.071
			c-1.977-3.225-4.012-6.737-7.39-8.963c-6.181-3.993-24.34-6.853-34.283-7.717c-1.861-0.173-3.743,0-5.604,0.02
			c-1.113,0.057-2.169,0.134-3.321,0.134c-1.958,0-4.549-0.153-6.795-1.324c-9.329,3.359-18.945,4.625-30.08,3.839
			c-7.312-0.441-14.933-1.401-22.266-2.265c-7.621-0.96-15.394-1.9-22.842-2.342c-2.669-0.115-5.413-0.057-8.159,0
			c-2.707,0.077-5.394,0.135-8.196,0c-4.281-0.192-8.581-0.614-12.746-1.017c-6.411-0.442-12.976-1.133-19.253-1.133
			c-1.861,0-3.455,0.134-5.182,0.192c-38.122,2.265-69.986,12.88-100.315,33.629c1.037,0.461,1.862,1.306,2.61,2.092
			c0.653,0.653,1.171,1.268,1.709,1.401c1.076,0.442,2.995,0.788,4.665,0.999c0.978,0.173,1.861,0.269,2.514,0.365
			c20.309,3.608,54.188,8.6,80.332,11.114c4.723,0.442,9.694,0.709,14.435,0.979c10.979,0.614,22.401,1.229,32.786,4.243
			l0.499,0.172v0.499c0.096,2.208-0.557,3.397-1.229,4.626c-0.538,1.132-1.209,2.323-1.69,4.376l-0.307,1.018
			c-0.499,1.286-0.729,2.034-0.979,2.457c-0.614,5.777-2.361,9.981-4.088,14.376c-1.439,3.686-2.994,7.486-4.031,12.631
			c-0.634,1.977-1.402,3.436-2.073,4.914c-0.441,0.978-0.883,1.919-1.287,2.937c-0.575,1.382-1.17,2.61-1.651,3.685
			c-0.402,0.921-0.787,1.651-0.998,2.265l-0.191,0.404c-3.936,9.348-4.07,13.379-3.783,14.857l0.212,0.768l-0.787,0.076
			c-0.845,0.077-1.229,0.557-1.766,1.401c-0.365,0.614-0.826,1.305-1.612,1.728c-1.459,5.97-4.031,10.231-6.853,14.799
			c-1.882,3.128-3.821,6.431-5.567,10.366c-2.284,4.185-4.338,7.774-6.604,11.325c-1.785,2.86-3.82,5.874-5.95,9.002
			c-1.882,2.726-3.916,5.664-5.797,8.658c-7.717,12.016-15.798,24.474-24.877,35.358c-6.47,7.678-13.61,15.184-21.902,17.851
			l-0.288,0.039l-0.212-0.058c-6.872-3.206-5.873-11.575-5.029-17.699c0.154-1.037,0.115-1.977,0-2.783
			c-0.02-0.845-0.096-1.42,0-1.958c2.092-8.772,8.465-16.489,14.07-23.323c2.976-3.569,5.759-7.006,7.621-10.173l0.115-0.153
			c16.278-16.7,33.438-41.865,46.952-69.141c1.344-2.707,2.092-5.663,2.802-8.561c0.538-2.074,0.96-3.935,1.69-5.836
			c1.516-3.301,2.591-6.084,3.57-8.771c0.96-2.572,1.862-4.991,3.032-7.563l0.173-0.153c2.035-1.786,3.877-3.858,2.687-6.027
			c-1.343-0.02-2.303,0.671-3.474,1.458c-0.921,0.768-1.862,1.439-3.091,1.804c-0.575,0.211-1.228,0.211-1.651,0.211h-1.151
			c-0.595,0-1.133,0.039-1.478,0.327c-2.15,1.613-3.014,3.167-4.204,5.106c-0.48,0.787-0.96,1.689-1.593,2.61l-0.154,0.115
			c-3.282,2.668-7.429,8.273-11.286,14.55c1.708-1.555,3.206-3.397,4.703-5.182c3.723-4.665,7.716-9.426,15.163-10.577l1.345-0.25
			l-0.576,1.229c-1.497,3.11-2.745,6.545-3.954,9.809c-1.364,3.686-2.784,7.486-4.608,11.153c-0.384,0.864-1.074,1.631-1.824,2.303
			c-0.575,0.577-1.036,1.057-1.42,1.671c-0.441,0.768-0.709,1.593-0.902,2.533c-0.288,0.883-0.595,1.766-1.056,2.611
			c-12.726,23.628-27.488,44.014-42.613,59.044l-1.056-0.959c1.498-2.227,4.223-6.546,5.278-10.04l0.115-0.269
			c0.289-0.094,0.365-0.363,0.538-0.671c0.25-0.499,0.595-1.209,1.286-1.573c1.324-4.415,3.571-8.408,5.625-12.286
			c1.747-3.339,3.628-6.756,5.01-10.442l0.844-1.958c2.035-4.607,3.705-8.503,6.104-11.018c0.173-0.479,0.346-0.806,0.46-1.132
			c0.538-1.209,0.787-1.863,0.787-3.935v-0.057c-0.211,0.479-0.499,0.979-0.71,1.458c-0.844,1.996-1.688,3.743-2.802,5.317
			c-0.173,1.076-0.652,1.747-0.979,2.477c-0.442,0.614-0.864,1.497-1.401,3.129c-0.691,1.458-1.248,2.399-1.824,3.187
			c-0.327,0.422-0.48,0.863-0.787,1.362c-2.054,5.298-4.703,9.81-7.467,14.588c-1.574,2.746-3.32,5.644-4.99,8.945
			c-0.614,0.883-0.614,0.883-1.249,2.419c-1.899,3.551-3.666,7.064-5.355,10.461c-2.456,4.895-4.914,9.886-7.793,14.55l-0.153,0.25
			c-6.277,4.338-11.325,9.943-16.296,15.395c-8.351,9.309-17.161,18.964-31.75,22.688l-0.882,0.231l0.038-1.019
			c1.229-15.452,4.819-30.097,9.617-40.329c-1.151-0.979-3.263-1.42-6.392-1.42c-0.652,0-1.209,0-1.843,0.038
			c-0.192,1.863-0.788,3.225-1.305,4.377c-0.077,0.211-0.115,0.5-0.25,0.71l0.25-0.019v0.749c-0.115,4.511-1.689,9.464-3.302,14.242
			c-1.92,6.066-3.954,12.247-3.263,17.641c0.307,1.901,1.209,3.071,2.15,4.377c1.017,1.286,2.016,2.688,2.438,4.837l0.172,0.71
			l-0.787,0.096c-1.651,0.134-3.397,0.402-5.202,0.595c-4.799,0.557-9.674,1.094-13.84,1.094c-1.709,0-3.109-0.039-4.28-0.289
			c0.327,0.825,1.017,1.248,2.034,1.786c0.788,0.403,1.594,0.845,2.188,1.536l0.115,0.268c1.114,3.686,0.577,8.273,0,11.325
			l-0.057,0.71h-2.13c2.13,2.553,1.305,5.452,0.575,8.522c-0.71,3.09-1.554,6.334,0.25,10.058l0.115,0.211l-0.057,0.327
			c-0.423,1.363-0.999,2.553-1.555,3.687c-0.115,0.229-0.269,0.517-0.384,0.786c1.517,16.297-1.458,29.965-4.453,43.246
			c-3.052,14.015-6.046,27.354-4.031,43.496l0.019,0.252l-0.153,0.211c-0.729,1.228-1.075,3.03-1.19,5.623h0.115
			c1.267,0.383,2.534,0.749,4.261,0.48l0.423-0.038l0.23,0.345c4.185,5.146,11.056,8.179,20.5,8.868l1.095,0.058l-0.557,0.96
			c-0.692,1.419-1.824,2.131-3.033,2.918C94.991,408.793,108.025,403.861,112.402,392.806 M211.333,235.787l1.229,0.231
			c0.02,2.053-0.499,3.666-1.036,5.086c0.556-0.154,1.036-0.441,1.362-0.902c1.382-1.881,1.191-5.816,0.462-8.351
			c-0.922,0.768-1.498,2.304-1.901,3.552C211.449,235.5,211.373,235.71,211.333,235.787 M158.355,197.358
			c-0.518,1.574-1.325,3.321-2.13,4.856c13.455-14.319,26.508-32.881,37.987-54.131c0.346-0.769,0.672-1.536,0.883-2.361
			c0.211-0.999,0.537-1.996,1.094-2.917c0.365-0.729,0.979-1.305,1.631-1.843c0.557-0.614,1.229-1.286,1.593-2.015
			c1.805-3.571,3.052-7.333,4.531-11.038c1.074-2.821,2.149-5.739,3.378-8.695c-6.104,1.42-9.502,5.547-13.053,9.866
			c-1.478,1.881-3.032,3.724-4.722,5.317c-0.518,1.018-0.845,2.13-1.382,3.32c-0.557,1.555-1.133,3.244-1.938,4.473
			c-0.749,1.478-2.88,5.24-4.492,6.718c0,0-0.23,0.211-0.307,0.345c0.307,1.593-1.517,3.744-2.228,4.53
			c-0.038,2.111-0.403,2.957-0.96,4.146c-0.115,0.346-0.269,0.691-0.402,1.229l-0.154,0.153c-2.284,2.458-4.05,6.296-5.95,10.769
			l-0.806,1.959c-1.44,3.762-3.302,7.216-5.107,10.538c-2.149,4.204-4.28,8.004-5.662,12.477l-0.077,0.307l-0.365,0.134
			c-0.365,0.096-0.518,0.384-0.807,0.998C158.701,196.725,158.566,197.051,158.355,197.358 M179.931,149.332
			c-0.73,1.132-1.401,2.438-1.997,3.705l0.038-0.058c1.114-1.171,2.247-2.821,2.15-3.494
			C180.007,149.39,180.007,149.332,179.931,149.332 M180.775,147.93L180.775,147.93c1.497-1.497,3.551-5.067,4.262-6.43
			c0.634-1.152,1.267-2.726,1.823-4.28c0.365-1.036,0.787-2.131,1.229-3.053C185.324,138.697,182.771,143.573,180.775,147.93
			 M85.24,402.287c-9.559,0-15.452-1.479-19.099-4.818l-0.538-0.518l0.538-0.538c2.783-2.802,2.975-5.184,3.435-9.962
			c0.02-1.019,0.173-2.112,0.269-3.359c0.327-3.378,0.922-6.295,1.517-9.328c0.634-3.571,1.305-7.255,1.804-12.228
			c0.403-4.3,1.018-8.562,1.69-13.034c1.497-9.712,2.955-19.713,2.208-30.655v-2.706l2.265,0.039
			c5.202,2.322,12.746,7.255,16.604,12.61c7.717,10.384,9.905,31.634,8.005,46.299c-1.709,13.534-9.349,23.936-12.611,27.796
			l-0.172,0.269l-0.269,0.019C88.733,402.268,86.872,402.287,85.24,402.287 M67.6,396.855c3.417,2.764,8.926,4.068,17.641,4.068
			c1.536,0,3.302-0.077,5.278-0.115c3.205-3.993,10.347-13.993,11.998-26.932c1.9-14.337-0.173-35.145-7.621-45.224
			c-3.686-4.912-10.826-9.789-15.951-12.092h-0.556v1.21c0.844,11.075-0.653,21.074-2.132,30.864
			c-0.671,4.529-1.324,8.772-1.727,13.072c-0.441,5.029-1.132,8.733-1.862,12.305c-0.518,3.031-1.094,5.875-1.401,9.232
			c-0.077,1.229-0.25,2.304-0.269,3.302C70.595,391.096,70.345,393.84,67.6,396.855 M128.813,272.431
			c-1.689,0-3.532-0.499-5.49-1.074c-2.073-0.615-4.146-1.133-6.296-1.345h-0.288l-0.154-0.076
			c-3.187-2.573-7.851-4.146-14.685-5.068l-2.169-0.288l1.9-1.094c1.939-0.979,3.936-2.016,5.854-3.014
			c6.585-3.264,13.417-6.661,18.178-11.883c0.307-0.172,0.594-0.402,0.921-0.402h0.366l0.364,0.384
			c0.23,0.518,0.038,1.113-1.344,3.743c-0.154,0.327-0.307,0.672-0.441,0.845v1.996c-0.039,0.864-0.077,1.651,0,2.361
			c0.538,4.549,2.284,7.678,4.28,10.864c0.595,0.921,1.056,1.747,1.574,2.611l0.365,0.653l-0.73,0.325
			C130.406,272.258,129.62,272.431,128.813,272.431 M117.296,268.669c2.226,0.191,4.396,0.768,6.411,1.325
			c2.265,0.69,4.454,1.228,5.989,0.959c-0.346-0.653-0.729-1.228-1.036-1.804c-1.959-3.225-4.031-6.585-4.492-11.421
			c-0.115-0.902-0.077-1.805-0.077-2.611c0.077-0.691,0.135-1.401,0.077-2.034v-0.136l0.058-0.211
			c0.077-0.211,0.23-0.594,0.537-1.094c0.039-0.039,0.115-0.096,0.172-0.211c-4.779,4.28-10.863,7.313-16.776,10.327
			c-1.287,0.69-2.688,1.382-3.994,1.977C110.117,264.772,114.283,266.269,117.296,268.669"/>
		<path fill-rule="evenodd" clip-rule="evenodd" fill="#0041D7" d="M455.729,388.408c-5.259,2.419-5.932-4.278-11.152-3.934
			c0.172-1.152-0.787-1.383-0.596-2.572c-0.058-0.863,0.136-1.19,0.596-1.306C448.589,380.116,458.205,382.362,455.729,388.408"/>
		<path fill="#0041D7" d="M453.578,389.676c-1.881,0-3.052-1.17-4.28-2.284c-1.268-1.114-2.418-2.245-4.377-2.245l-1.132,0.058
			l0.153-0.865c0-0.307-0.153-0.46-0.211-0.805c-0.27-0.385-0.537-0.903-0.461-1.632c-0.154-1.363,0.672-1.844,1.075-1.979
			c0.575-0.075,0.863-0.113,1.267-0.113c3.148,0,8.312,1.114,10.423,4.106c0.922,1.346,1.094,2.978,0.385,4.723l-0.116,0.229
			l-0.211,0.116C455.172,389.389,454.404,389.676,453.578,389.676 M445.324,383.841c2.265,0.038,3.646,1.306,4.952,2.515
			c1.479,1.401,2.86,2.342,4.914,1.496c0.48-1.169,0.326-2.207-0.326-3.148c-1.823-2.688-7.524-3.684-10.211-3.473
			c0,0-0.077,0.038,0,0.538v0.134v0.113c-0.038,0.347,0.095,0.52,0.268,0.923C445.036,383.149,445.171,383.456,445.324,383.841"/>
		<path fill-rule="evenodd" clip-rule="evenodd" fill="#0041D7" d="M347.851,409.331c0.71-0.096,1.152,0.174,1.324,0.691
			c1.171,7.524-1.957,16.45-2.571,25.473c-0.826,9.75,0.537,19.963-3.379,26.834c-5.375-0.921-5.24-7.658-5.125-11.767
			c0-4.067,1.996-11.325,3.186-18.369C342.86,422.884,344.166,414.283,347.851,409.331"/>
		<path fill="#0041D7" d="M343.609,463.061l-0.422-0.096c-5.989-0.923-5.894-8.062-5.835-12.325
			c0.057-2.648,0.787-6.372,1.747-10.69c0.518-2.535,1.074-5.184,1.535-7.892l0.116-0.824c1.478-8.905,2.86-17.371,6.564-22.324
			l0.173-0.249l0.269-0.021c0.153-0.058,0.288-0.058,0.384-0.058c0.864,0,1.44,0.425,1.689,1.249
			c0.729,4.839-0.173,10.098-1.133,15.625c-0.576,3.32-1.209,6.699-1.478,10.135c-0.211,2.727-0.211,5.546-0.289,8.234
			c-0.096,7.084-0.153,13.726-3.013,18.83L343.609,463.061z M348.215,410.022c-3.244,4.723-4.606,12.861-6.084,21.441l-0.116,0.883
			c-0.499,2.65-1.075,5.395-1.555,7.947c-0.844,4.051-1.689,7.871-1.689,10.269c-0.019,4.013-0.115,9.81,4.127,10.961
			c2.438-4.683,2.514-11.075,2.649-17.698c0.038-2.744,0.058-5.546,0.269-8.388c0.25-3.438,0.845-6.873,1.497-10.213
			c0.96-5.449,1.861-10.555,1.132-15.124C348.446,410.101,348.446,410.022,348.215,410.022"/>
		<path fill-rule="evenodd" clip-rule="evenodd" fill="#0041D7" d="M409.295,373.993c-4.914-5.777-13.283-6.949-21.575-6.544
			c-1.978-4.378-2.15-15.876,0-20.234c3.359,1.844,5.739,4.686,11.805,3.956c0.116-4.761,13.533,1.247,14.378-4.686
			c-3.705-7.197-16.336-5.412-25.53-7.14c1.613-4.357,0.46-11.286,2.668-15.068c6.948,1.593,10,11.307,17.64,11.805
			c2.515,0.098,5.164-1.555,7.909-1.977c2.361-0.327,4.108,1.938,5.816-0.614c-3.148-12.073-19.387-9.367-30.08-12.438
			c-0.268-1.594,2.957,0.327,1.92-1.978c-10.941-3.55-6.872,12.227-10.403,21c-2.381,1.536-5.26,2.591-6.546,5.203
			c2.534-0.442,3.341,0.938,4.569,1.937c-1.344,2.419-2.093,7.237-2.63,8.503c-6.276-12.438-16.373-21.114-26.834-29.387
			c-0.883-0.884-0.614-2.898-0.614-4.646c-7.333-5.488-13.38-12.323-22.305-16.354c-3.897-4.301-8.101-8.619-11.748-12.399
			c-1.689-1.747-3.532-2.879-5.221-3.916c-1.997-1.286-2.899-3.206-4.607-4.606c-6.124-5.01-14.742-8.754-16.315-17.621
			c2.361-1.056,3.954-1.325,6.487-0.692c9.656-4.28,21.577-12.15,24.877-22.899c3.417-10.769,1.248-25.319-3.205-32.019
			c-4.184-6.142-15.567-7.256-24.206-5.835c-0.269-4.607,7.256-7.371,2.533-10.5c-3.627,5.585-5.969,15.567-14.319,14.416
			c0.077,2.917,4.089,2.034,3.898,5.164c-7.083,11.229-13.533,23.073-19.599,35.416c0.729-15.74,4.318-31,4.626-45.167
			c1.094-2.765,4.357-3.437,4.51-7.199c-6.775-1.074-6.449,3.609-10.442,2.553c0.078,2.784-0.364,1.536-1.363,0.71
			c0.326,2.649,1.325,5.28,1.363,7.832c0.192,11.249-2.208,18.12-3.896,26.796c-1.018,5.011-1.018,11.556-2.016,16.354
			c-0.345,1.862-1.363,3.014-1.267,4.645c0.173,2.937,2.63,5.548,2.573,8.485c-0.077,2.937-2.649,7.582-3.916,11.689
			c-5.279,17.641-8.389,33.976-12.4,49.084c-13.687-0.175-24.974,5.354-39.869,5.891c0.48-2.724-2.168-5.679-3.302-4.605
			c-0.691,11.536-4.721,23.609-6.526,37.296c-0.653,1.132-2.073,1.421-3.34,1.979c-0.039,2.283,3.09,1.268,2.687,3.896
			c-0.096,11.364-10.999,25.971-7.217,35.358c1.631,4.087,3.301,8.236,7.217,9.079c2.342-3.051,4.376-6.488,6.565-9.713
			c1.593,0.768,3.839,0.9,5.854,1.325c0-1.787-0.402-3.936,1.286-3.974c7.64-0.442,12.458-3.724,20.309-3.897
			c1.651,2.668,5.835,4.512,9.137,1.919c-1.017-9.577,3.398-18.1,5.816-26.182c4.242-1.228,9.06-1.899,13.782-2.61
			c2.61,0.824,4.473,2.783,6.508,0.691c6.583,8.216,11.075,16.564,18.369,25.473c4.262,5.181,10.73,11.976,15.682,16.968
			c2.457,2.515,4.569,3.915,5.318,5.932c1.286,4.299-0.557,8.772-0.749,13.072c-0.154,3.225,0.326,6.506,0,8.465
			c-1.575,9.866-11.056,15.509-18.274,22.284c-3.55,3.227-6.2,6.066-9.789,8.505c-14.8,9.788-34.956,14.568-48.411,24.896
			c-1.67,1.19-2.956,3.071-4.645,4.472c-1.287,1.132-4.972,2.035-3.878,4.607c2.017-2.246,4.896-0.98,7.832-1.919
			c2.937-0.942,5.951-3.646,9.195-4.627c9.233-2.666,18.235,0.862,27.469,0c5.125-0.519,9.943-3.397,14.338-3.244
			c3.878,0.098,7.602,3.108,10.463,4.665c8.944-2.055,16.527-10.577,24.166-15.836c2.247-1.479,4.915-2.478,6.604-3.916
			c4.972-4.185,11.057-12.728,11.729-19.542c0.883-8.561-3.167-16.661-2.592-25.586c0.308-4.031,1.92-7.66,1.92-11.672
			c0-4.645-2.169-11.709-1.92-14.435c1.133-11.305,14.743-15.874,21.614-21.633c2.803-1.555,12.977-4.799,20.961-2.706
			c3.014-5.452,11.095-1.595,15.606-3.148c-5.855,28.812-13.225,54.149-12.477,85.67c3.187,2.168,2.764,7.831,5.317,10.479
			c0.902-1.038,0.594-3.38,1.938-3.896c2.15,0.729,3.878,1.745,6.565,1.898c6.872-3.646,4.722-15.511,5.817-23.533
			c5.277-0.806,16.718-1.497,21.671-2.629c-4.07-6.085-14.608-3.936-23.533-3.878c-0.902-2.017-0.768-5.029-0.768-7.793
			c4.953-3.053,16.085,0.229,20.309-3.302c-2.457-0.383-3.532-2.112-4.55-3.974c-7.352-0.674-11.574-0.596-18.945-0.674
			c0.845-2.915,0.288-3.453,0.634-7.178c1.573,0.883,3.762,1.057,5.183,2.017c1.727-7.929,17.179-4.896,21.671-7.891
			c-0.729-0.171-1.651-1.132-0.671-1.268c-2.592-4.394-18.217-1.419-25.53-3.244c1.804-7.197,2.898-14.971,3.282-23.569
			c0.671-1.287,2.477-1.536,3.359-2.63c-1.727-1.21-2.304-3.456-2.688-5.854c15.837-4.837,33.189,0.862,45.8,1.247
			c1.689-1.459,3.686-2.804,4.53-5.201C434.057,373.148,421.829,375.355,409.295,373.993 M230.068,389.733
			c-10.423,0-18.542,2.401-26.739,4.549c-1.286-5.91-0.268-17.485,0-22.899c2.534,0.115,4.645,0.634,6.546,1.325
			c6.296,0.058,12.457-7.084,18.273-6.526c3.513,0.287,4.223,3.34,7.889,4.491C233.965,376.95,231.969,383.322,230.068,389.733
			 M239.264,357.659c-13.342-2.401-24.973,1.841-35.935,3.953c1.248-6.891,0.768-18.542,1.901-27.507
			c11.133,4.068,26.067,1.036,38.582,0.729C243.697,343.817,240.703,349.903,239.264,357.659 M291.59,232.735
			c1.343-7.87-1.536-15.74,3.954-21.556c5.874-1.536,9.636-2.073,14.378-1.324c10.231,15.721,4.088,33.228-7.16,43.842
			c-6.143,5.72-15.855,11.767-24.302,8.484C280.398,252.487,289.861,243.619,291.59,232.735 M247.786,364.203
			c1.364-11.632,4.012-22.131,7.851-31.325c11.748-2.382,22.19-0.461,24.186,9.059c1.709,8.58-2.63,15.645-6.526,21.614
			C263.583,361.65,258.401,362.727,247.786,364.203 M353.763,367.449c-9.943,2.283-16.277,4.489-26.834,9.846
			c-8.753,8.178-15.703,18.293-21.576,29.426c-10.903-7.927-18.965-18.6-26.893-29.426c0.423-1.17-0.71-3.82,0.692-3.878
			c-0.326-1.919-2.534-1.919-3.858-2.744c1.152-1.785,3.858-1.938,6.584-2.61c6.046-9.254,12.111-18.735,4.434-31.98
			c-4.856-8.579-14.665-10.922-29.407-11.171c1.133-2.419,1.113-5.452,1.325-7.14c6.393-14.953,7.64-35.052,17.679-46.415h1.286
			c1.805,5.124,6.373,8.368,9.829,12.399c9.789,11.613,19.233,25.166,30.137,36.683c7.333,7.869,13.11,16.296,19.598,24.839
			c6.181,8.176,13.783,14.626,20.194,22.171C355.683,369.597,355.932,367.562,353.763,367.449"/>
		<path fill-rule="evenodd" clip-rule="evenodd" fill="#0041D7" d="M225.577,206.591c0,1.287-1.766,0.788-1.306,2.668
			C222.601,208.799,223.869,205.938,225.577,206.591"/>
		<path fill="#0041D7" d="M225.212,210.2l-1.171-0.346c-0.883-0.173-1.401-0.941-1.171-1.881c0.039-1.075,0.979-2.188,2.169-2.188
			c0.288,0,0.538,0.115,0.71,0.173l0.499,0.153v0.479c0,0.94-0.653,1.382-1.017,1.613c-0.365,0.268-0.48,0.307-0.307,0.845
			L225.212,210.2z"/>
		<path fill-rule="evenodd" clip-rule="evenodd" fill="#0041D7" d="M222.237,209.854c1.19,0.499,0.135,1.229,0,2.034
			C221.123,211.39,222.237,210.622,222.237,209.854"/>
		<path fill="#0041D7" d="M222.87,212.887l-0.883-0.403c-0.499-0.211-0.787-0.461-0.864-0.826c-0.173-0.538,0.039-1.017,0.25-1.458
			c0.096-0.058,0.191-0.307,0.191-0.441l0.058-0.845l0.96,0.346c0.403,0.192,0.748,0.441,0.864,0.883
			c0.21,0.5-0.019,0.979-0.288,1.305c-0.058,0.211-0.173,0.441-0.211,0.5L222.87,212.887z"/>
		<path fill-rule="evenodd" clip-rule="evenodd" fill="#0041D7" d="M221.623,213.195
			C224.041,215.133,219.646,215.364,221.623,213.195"/>
		<path fill="#0041D7" d="M221.718,215.46c-0.518,0-0.978-0.327-1.17-0.768c-0.25-0.346-0.327-1.094,0.575-1.997l0.441-0.518
			l0.577,0.461c0.998,0.863,1.017,1.594,0.844,1.977C222.87,215.114,222.352,215.46,221.718,215.46"/>
		<path fill-rule="evenodd" clip-rule="evenodd" fill="#0041D7" d="M215.749,222.235c2.668-0.076,0.326,1.382,0.614,2.649
			C215.538,224.654,215.826,223.33,215.749,222.235"/>
		<path fill="#0041D7" d="M217.38,225.863l-1.113-0.288c-1.21-0.25-1.21-1.651-1.172-2.534c0-0.192,0-0.461-0.038-0.671l-0.134-0.75
			l0.749-0.038c0.249,0,0.307-0.02,0.307-0.02c0.652,0,1.286,0.057,1.651,0.634c0.308,0.5,0.077,1.132-0.25,1.593
			c-0.153,0.384-0.383,0.691-0.326,0.921L217.38,225.863z"/>
		<path fill-rule="evenodd" clip-rule="evenodd" fill="#0041D7" d="M218.34,222.965c1.094-0.115,1.421,4.299-0.576,3.263
			C217.093,224.385,218.609,224.596,218.34,222.965"/>
		<path fill="#0041D7" d="M218.244,227.092v-1.363v0.673v-0.673v0.673v-0.673c0.077-0.096,0.25-0.383,0.25-1.017
			c0-0.518-0.211-0.998-0.25-1.132c0,0.038,0.077,0.134,0.077,0.134l0.096-1.479c0.269,0,0.845,0.173,1.229,1.095
			c0.154,0.384,0.23,0.883,0.23,1.382C219.876,226.17,219.262,227.092,218.244,227.092"/>
		<path fill-rule="evenodd" clip-rule="evenodd" fill="#0041D7" d="M215.749,225.576c0.96,0.557,1.344,1.67,1.248,3.321h-2.611
			C215.135,227.917,215.096,226.401,215.749,225.576"/>
		<path fill="#0041D7" d="M217.765,229.586h-4.761l0.864-1.132c0.269-0.307,0.423-0.902,0.519-1.439
			c0.288-0.634,0.441-1.364,0.863-1.843l0.308-0.518l0.518,0.383c0.844,0.423,1.863,1.536,1.689,3.897V229.586z"/>
		<path fill-rule="evenodd" clip-rule="evenodd" fill="#0041D7" d="M215.096,230.144c1.901-0.921,1.901,2.956,0,1.938V230.144z"/>
		<path fill="#0041D7" d="M215.634,232.946v-1.401c0.211,0,0.211-0.25,0.211-0.365v-0.058c0-0.211-0.096-0.384-0.096-0.384
			l-0.115-1.44c0.902,0,1.593,0.769,1.593,1.824c0,0.423-0.134,0.883-0.365,1.152C216.651,232.697,216.133,232.946,215.634,232.946"
			/>
		<path fill-rule="evenodd" clip-rule="evenodd" fill="#0041D7" d="M227.439,200.026c0.805,0.212,0.557,1.363,1.382,1.363
			c0,1.958-1.748,2.208-1.939,3.954c-0.691-1.208-2.476-2.284-2.016,0.673c-2.61-0.826,0.173-3.801,2.016-4.013
			c-0.422,0.576-0.863,1.248,0,1.363C228.283,203.424,227.17,201.005,227.439,200.026"/>
		<path fill="#0041D7" d="M227.286,207.531l-1.037-1.842c-0.23-0.403-0.499-0.691-0.729-0.787c0,0.135,0,0.441,0.076,0.998
			l0.154,1.075l-1.113-0.327c-1.497-0.499-1.574-1.573-1.536-1.996c0.154-1.555,2.131-3.128,3.724-3.263
			c-0.096-0.519-0.134-1.133,0-1.536l0.192-0.575l0.614,0.076c0.71,0.173,0.96,0.788,1.152,1.075
			c0.039,0.096,0.039,0.269,0.039,0.269l0.709,0.038l-0.038,0.653c0,1.325-0.633,2.035-1.151,2.592
			c-0.345,0.499-0.71,0.883-0.769,1.458L227.286,207.531z"/>
		<path fill-rule="evenodd" clip-rule="evenodd" fill="#0041D7" d="M260.838,219.011c-1.747,0.518,0.441-3.091-1.267-2.591
			c0.519,5.951-5.355,7.197-5.873,13.725c-2.457,0.634-2.746,3.455-5.298,3.954c0.441,7.851-9.617,10.787-12.362,17.621
			c-2.38-0.154-3.244,1.228-5.24,1.305c-3.552-5.144-6.162-11.363-7.889-18.255c5.682-12.399,8.81-23.072,5.912-36.663
			c0.614,0,0.518,0.787,0.671,1.325c0.441-5.413,10.538-7.851,13.763-2.573c-2.111-0.365-2.553,0.922-4.012,1.248
			c-0.768,12.669-3.128,24.858-4.568,38.621c12.938-7.562,22.228-18.754,28.773-32.786
			C269.554,208.146,260.762,213.021,260.838,219.011"/>
		<path fill="#0041D7" d="M230.434,253.792l-0.211-0.346c-3.475-4.933-6.181-11.21-7.966-18.504v-0.269l0.019-0.288
			c5.739-12.477,8.658-22.938,5.816-36.087l-0.192-0.826h0.922c0.191,0,0.345,0,0.499,0.02c1.247-2.707,4.817-4.319,8.062-4.319
			c2.84,0,5.183,1.267,6.43,3.32l0.844,1.288l-1.516-0.289c-1.113-0.153-1.574,0.173-2.284,0.614
			c-0.268,0.192-0.537,0.326-0.921,0.576c-0.441,6.93-1.344,13.629-2.342,20.808c-0.768,5.105-1.42,10.346-2.092,15.874
			c11.805-7.16,20.711-17.506,27.354-31.729l0.345-0.614l0.633,0.365c4.281,2.86,2.092,6.296,0.289,9.309
			c-1.267,2.035-2.573,4.127-2.573,6.316l0.077,0.575l-0.556,0.135c-0.519,0.115-0.921,0.057-1.133-0.097
			c-0.557,1.594-1.536,2.822-2.495,4.089c-1.344,1.747-2.784,3.57-3.072,6.583v0.481l-0.518,0.076
			c-1.037,0.192-1.613,0.921-2.208,1.766c-0.671,0.71-1.363,1.593-2.515,1.978c0,4.53-3.378,7.602-6.564,10.403
			c-2.342,2.112-4.837,4.281-5.951,6.968l-0.115,0.519l-0.537-0.077c-1.152,0-1.824,0.231-2.611,0.614
			c-0.691,0.269-1.498,0.672-2.496,0.768H230.434z M223.696,234.827c1.804,6.834,4.3,12.804,7.409,17.487
			c0.614-0.135,1.132-0.346,1.67-0.576c0.749-0.307,1.536-0.69,2.726-0.749c1.324-2.802,3.743-4.933,6.124-7.045
			c3.282-2.898,6.315-5.624,6.065-9.828v-0.575l0.596-0.154c1.075-0.211,1.554-0.941,2.265-1.689
			c0.672-0.788,1.325-1.631,2.495-2.092c0.346-3.033,1.978-5.011,3.283-6.757c1.555-1.939,2.822-3.627,2.554-6.412l-0.078-0.556
			l0.576-0.134c0.557-0.154,1.036-0.058,1.267,0.307h0.096c0.518-1.478,1.324-2.783,2.169-4.108c1.939-3.167,2.898-5.01,0.769-6.91
			c-6.815,14.396-16.413,25.203-28.602,32.248l-1.152,0.767l0.077-1.458c0.576-5.989,1.382-11.786,2.169-17.371
			c0.94-7.237,1.919-14.128,2.418-21.115l0.039-0.499l0.461-0.135c0.403-0.133,0.729-0.326,1.056-0.538
			c0.421-0.326,0.901-0.633,1.631-0.787c-1.074-0.959-2.61-1.536-4.395-1.536c-3.321,0-6.949,1.978-7.16,4.819l-0.46,0.096
			C232.2,212.273,229.224,222.581,223.696,234.827"/>
		<path fill="#0041D7" d="M224.003,234.847c1.747,6.68,4.184,12.458,7.294,17.103c0.479-0.154,0.902-0.307,1.362-0.518
			c0.71-0.346,1.536-0.729,2.726-0.788c1.305-2.744,3.647-4.856,5.989-6.891c3.244-2.841,6.2-5.567,6.027-9.637l-0.076-0.901
			l0.92-0.192c0.883-0.192,1.382-0.767,2.035-1.554c0.614-0.826,1.382-1.632,2.418-2.035c0.441-3.052,2.074-5.048,3.378-6.853
			c1.459-1.862,2.667-3.474,2.438-6.123l-0.058-0.788l0.826-0.269c0.441-0.172,0.921-0.038,1.267,0.173
			c0.576-1.402,1.325-2.668,2.093-3.762c1.823-2.899,2.725-4.607,1.189-6.143c-6.853,14.147-16.45,24.935-28.562,31.864
			l-1.804,1.056l0.191-2.015c0.556-6.104,1.421-11.863,2.112-17.487c1.056-7.198,1.958-14.05,2.458-21.038l0.076-0.73l0.729-0.268
			c0.307,0,0.557-0.192,0.883-0.441c0.346-0.192,0.691-0.384,1.132-0.557c-0.94-0.729-2.265-1.074-3.686-1.074
			c-3.148,0-6.564,1.784-6.795,4.453l-0.499,0.153C232.545,212.331,229.55,222.639,224.003,234.847"/>
		<path fill="#0041D7" d="M230.951,252.66l-0.268-0.345c-3.11-4.684-5.644-10.5-7.353-17.333l-0.038-0.211l0.134-0.269
			c5.432-12.055,8.407-22.094,6.008-34.82l-0.096-0.729l0.576-0.077c0.652-2.917,4.299-4.625,7.447-4.625
			c1.67,0,2.975,0.402,4.127,1.171l1.075,0.844l-1.248,0.423c-0.384,0.172-0.729,0.365-0.979,0.499l-0.249,0.173
			c-0.288,0.211-0.557,0.384-0.922,0.48l-0.134,0.039l-0.095,0.23c-0.442,6.853-1.344,13.34-2.4,21.037l-0.191,1.518
			c-0.71,5.105-1.439,10.423-1.996,15.932l-0.097,0.691l0.614-0.326c12.017-6.891,21.556-17.526,28.372-31.615l0.383-0.94
			l0.749,0.691c1.919,2.111,0.595,4.3-1.132,7.083c-0.807,1.171-1.498,2.342-1.978,3.571l-0.345,0.729l-0.652-0.326
			c-0.211-0.096-0.538-0.134-0.788-0.076l-0.25,0.115v0.23c0.25,3.013-1.19,4.703-2.592,6.603c-1.439,1.843-2.764,3.667-3.301,6.47
			v0.441l-0.384,0.134c-0.978,0.383-1.574,1.17-2.13,1.823c-0.557,0.787-1.287,1.651-2.419,1.843l-0.25,0.058v0.307
			c0.135,4.338-2.975,7.14-6.238,10.173c-2.188,1.939-4.607,4.012-5.95,6.719l-0.192,0.384h-0.364
			c-1.095,0.058-1.786,0.345-2.477,0.69c-0.538,0.25-0.959,0.461-1.458,0.557L230.951,252.66z M224.771,234.942
			c1.632,6.277,3.935,11.767,6.795,16.143c0.21-0.038,0.442-0.096,0.71-0.23c0.691-0.364,1.536-0.729,2.591-0.863
			c1.479-2.746,3.916-4.857,6.066-6.795c3.071-2.726,5.951-5.356,5.797-9.042l-0.134-1.479l1.555-0.307
			c0.519-0.172,0.979-0.614,1.574-1.382c0.557-0.692,1.268-1.497,2.362-1.997c0.614-3.053,2.035-4.952,3.339-6.757
			c1.286-1.67,2.304-3.013,2.438-4.836c-6.065,8.734-13.571,15.778-22.247,20.846l-2.957,1.669l0.269-3.359
			c0.538-5.644,1.306-10.96,2.035-16.047l0.173-1.497c1.113-7.793,1.92-14.224,2.38-21.039l0.154-1.209l1.113-0.269
			c0.25-0.076,0.384-0.191,0.518-0.268l0.25-0.173c-0.652-0.288-1.363-0.403-2.188-0.403c-2.744,0-5.931,1.651-6.161,3.935v0.538
			l-0.25,0.02C233.121,212.772,230.088,223.233,224.771,234.942 M259.822,214.614c0,0,0.269,0,0.364,0.059
			c0.537-1.172,1.094-2.188,1.824-3.226c1.42-2.188,1.977-3.378,1.823-4.338c-1.286,2.649-2.668,5.164-4.184,7.505H259.822z"/>
	</g>
	<g>
		<polygon fill="#0041D7" points="649.562,159.87 649.562,178.355 664.86,178.355 664.86,184.018 649.562,184.018 649.562,209.989
			643.324,209.989 643.324,154.227 676.07,154.227 676.07,159.87 		"/>
		<path fill="#0041D7" d="M712.638,210.872c-13.858,0-23.034-11.882-23.034-28.678c0-16.834,9.329-28.851,23.207-28.851
			s23.092,11.863,23.092,28.678S726.497,210.872,712.638,210.872 M712.541,159.006c-9.616,0-16.699,9.002-16.699,23.015
			c0,14.031,7.313,23.188,17.047,23.188c9.635,0,16.795-9.002,16.795-23.015C729.684,168.162,722.294,159.006,712.541,159.006"/>
		<path fill="#0041D7" d="M789.783,209.989l-24.378-38.161c-1.189-1.92-3.281-5.586-3.992-7.025v3.838v41.347h-5.97v-55.763h6.046
			l24.168,38.871c1.171,1.899,3.243,5.567,3.954,7.025v-3.859v-42.037h5.971v55.763H789.783z"/>
		<path fill="#0041D7" d="M831.131,209.989h-13.61v-55.763h14.723c14.664,0,25.435,8.35,25.435,27.488
			C857.678,201.946,846.025,209.989,831.131,209.989 M831.783,159.87h-8.062v44.456h8.216c12.015,0,19.501-6.373,19.501-22.381
			C851.438,167.701,844.606,159.87,831.783,159.87"/>
		<path fill="#0041D7" d="M910.964,209.989l-4.8-14.186H883.13l-4.837,14.186h-6.354l19.33-55.763h6.872l19.367,55.763H910.964z
			 M898.142,171.829c-1.306-3.667-2.86-8.695-3.437-10.98c-0.556,2.208-2.149,7.237-3.513,11.152l-6.124,18.139h19.196
			L898.142,171.829z"/>
		<polygon fill="#0041D7" points="949.47,159.87 949.47,209.989 943.249,209.989 943.249,159.87 926.838,159.87 926.838,154.227
			965.862,154.227 965.862,159.87 		"/>
		<rect x="984.751" y="154.227" fill="#0041D7" width="6.237" height="55.763"/>
		<path fill="#0041D7" d="M1033.929,210.872c-13.859,0-23.016-11.882-23.016-28.678c0-16.834,9.311-28.851,23.168-28.851
			c13.879,0,23.112,11.863,23.112,28.678S1047.787,210.872,1033.929,210.872 M1033.852,159.006c-9.654,0-16.738,9.002-16.738,23.015
			c0,14.031,7.314,23.188,17.064,23.188c9.617,0,16.814-9.002,16.814-23.015C1050.992,168.162,1043.564,159.006,1033.852,159.006"/>
		<path fill="#0041D7" d="M1111.055,209.989l-24.378-38.161c-1.21-1.92-3.263-5.586-3.993-7.025v3.838v41.347h-5.969v-55.763h6.047
			l24.147,38.871c1.189,1.899,3.263,5.567,3.974,7.025v-3.859v-42.037h5.988v55.763H1111.055z"/>
		<path fill="#0041D7" d="M663.498,303.681c-13.629,0-22.555-12.343-22.555-28.697c0-16.565,9.328-28.832,22.804-28.832
			c7.62,0,13.379,2.86,17.755,8.927l-4.933,3.743c-3.607-4.856-6.947-7.026-12.994-7.026c-9.578,0-16.431,9.502-16.431,23.035
			c0,13.629,7.083,23.188,16.508,23.188c6.046,0,10.192-2.687,13.801-7.313l4.28,3.724
			C677.685,299.919,671.618,303.681,663.498,303.681"/>
		<path fill="#0041D7" d="M723.33,303.681c-13.303,0-20.155-8.062-20.155-23.514v-33.15h6.22v32.997
			c0,12.017,4.606,18.005,14.242,18.005c9.655,0,13.475-5.836,13.475-17.852v-33.15h6.221v32.997
			C743.332,295.485,736.709,303.681,723.33,303.681"/>
		<polygon fill="#0041D7" points="768.42,302.798 768.42,247.017 774.658,247.017 774.658,297.155 802.203,297.155 802.203,302.798
					"/>
		<polygon fill="#0041D7" points="835.123,252.679 835.123,302.798 828.904,302.798 828.904,252.679 812.472,252.679
			812.472,247.017 851.516,247.017 851.516,252.679 		"/>
		<path fill="#0041D7" d="M893.361,303.681c-13.303,0-20.156-8.062-20.156-23.514v-33.15h6.221v32.997
			c0,12.017,4.605,18.005,14.262,18.005c9.638,0,13.456-5.836,13.456-17.852v-33.15h6.221v32.997
			C913.364,295.485,906.741,303.681,893.361,303.681"/>
		<path fill="#0041D7" d="M964.769,278.573l12.265,24.225h-7.179l-11.938-23.744h-13.227v23.744h-6.237v-55.781h22.094
			c9.789,0,17.371,5.029,17.371,15.778C977.917,271.509,972.715,276.885,964.769,278.573 M960.313,252.679h-15.624v20.808h14.8
			c8.292,0,12.208-3.436,12.208-10.442C971.697,256.211,967.705,252.679,960.313,252.679"/>
		<polygon fill="#0041D7" points="1001.085,302.798 1001.085,247.017 1034.792,247.017 1034.792,252.679 1007.323,252.679
			1007.323,270.204 1023.237,270.204 1023.237,275.887 1007.323,275.887 1007.323,297.155 1036.021,297.155 1036.021,302.798 		"/>
		<path fill="#0041D7" d="M1109.979,302.798l-4.452-5.834c-4.07,4.185-9.099,6.717-15.089,6.717
			c-12.245,0-16.795-6.872-16.795-14.972c0-8.312,4.626-12.822,12.515-16.815l-1.919-2.553c-2.784-3.686-4.913-6.873-4.913-11.153
			c0-7.025,5.394-12.036,14.165-12.036c6.22,0,10.826,1.824,14.838,5.011l-3.225,4.952c-4.128-3.283-7.294-4.55-11.709-4.55
			c-4.933,0-7.966,2.554-7.966,6.296c0,2.936,1.209,5.01,3.359,7.793l16.969,22.094c1.515-2.802,2.725-6.162,3.839-9.828
			l5.221,1.613c-1.267,4.607-3.168,9.001-5.547,12.745l8.023,10.52H1109.979z M1089.326,275.963
			c-6.909,3.167-9.694,7.159-9.694,12.572s3.802,9.731,10.981,9.731c4.797,0,8.6-2.015,11.631-5.431L1089.326,275.963z"/>
		<path fill="#0041D7" d="M656.952,395.588h-13.628v-55.762h14.741c14.666,0,25.415,8.367,25.415,27.467
			C683.48,387.565,671.849,395.588,656.952,395.588 M657.586,345.487h-8.024v44.477h8.177c12.056,0,19.541-6.393,19.541-22.421
			C677.279,353.281,670.427,345.487,657.586,345.487"/>
		<rect x="708.435" y="339.826" fill="#0041D7" width="6.218" height="55.779"/>
		<path fill="#0041D7" d="M764.676,395.588h-6.853l-18.945-55.762h6.526l12.419,38.18c1.113,3.32,2.88,9.001,3.437,10.979
			c0.556-1.978,2.476-7.89,3.513-11.151l12.495-38.007h6.373L764.676,395.588z"/>
		<polygon fill="#0041D7" points="807.482,395.588 807.482,339.826 841.188,339.826 841.188,345.487 813.701,345.487
			813.701,363.013 829.633,363.013 829.633,368.677 813.701,368.677 813.701,389.964 842.398,389.964 842.398,395.588 		"/>
		<path fill="#0041D7" d="M892.824,371.364l12.266,24.224h-7.178l-11.961-23.745h-13.205v23.745h-6.22v-55.762h22.074
			c9.789,0,17.353,5.048,17.353,15.778C905.953,364.301,900.771,369.694,892.824,371.364 M888.352,345.487h-15.605v20.79h14.817
			c8.273,0,12.19-3.418,12.19-10.444C899.754,349.001,895.762,345.487,888.352,345.487"/>
		<path fill="#0041D7" d="M946.379,396.49c-7.582,0-14.339-3.282-18.734-7.735l4.165-4.625c4.204,4.067,9.06,6.697,14.819,6.697
			c7.389,0,12.016-3.665,12.016-9.579c0-5.163-3.109-8.118-13.303-11.784c-12.054-4.28-16.085-8.196-16.085-16.259
			c0-8.907,6.987-14.262,17.449-14.262c7.466,0,12.245,2.246,16.948,5.988l-3.974,4.856c-4.068-3.36-7.831-5.184-13.379-5.184
			c-7.658,0-10.864,3.84-10.864,8.198c0,4.645,2.073,7.255,13.245,11.247c12.36,4.474,16.161,8.6,16.161,16.892
			C964.844,389.695,958.012,396.49,946.379,396.49"/>
		<rect x="990.412" y="339.826" fill="#0041D7" width="6.239" height="55.779"/>
		<polygon fill="#0041D7" points="1043.18,345.487 1043.18,395.588 1036.961,395.588 1036.961,345.487 1020.55,345.487
			1020.55,339.826 1059.593,339.826 1059.593,345.487 		"/>
		<path fill="#0041D7" d="M1083.125,395.588v-55.762h33.67v5.661h-27.488v17.525h15.932v5.664h-15.932v21.287h28.717v5.624H1083.125
			z M1100.805,336.237h-4.722l8.196-12.728h8.542L1100.805,336.237z"/>
	</g>
</g>
</svg>
