<?xml version="1.0" encoding="utf-8"?>
<!-- Generator: Adobe Illustrator 21.0.0, SVG Export Plug-In . SVG Version: 6.00 Build 0)  -->
<svg version="1.1" id="Calque_1" xmlns="http://www.w3.org/2000/svg" xmlns:xlink="http://www.w3.org/1999/xlink" x="0px" y="0px"
	 viewBox="0 0 600 262.5" style="enable-background:new 0 0 600 262.5;" xml:space="preserve">
<style type="text/css">
	.st0{fill:#FFFFFF;}
</style>
<g>
	<path class="st0" d="M285.1,238.6c-0.8,0-1.5-0.8-1.5-1.8V25c0-1,0.6-1.8,1.5-1.8c0.8,0,1.5,0.8,1.5,1.8v211.8
		C286.6,237.8,286,238.6,285.1,238.6"/>
	<g>
		<path class="st0" d="M76.1,161.5c2-0.8,3.9,1.5,5.2,2.5c-0.9,6.4,2.1,12.5,2.4,20.2c3.2-4.3,5.2-9.6,7.7-14.6
			c0.1-1.3-0.3-3.1,0.4-3.9c1.5-0.5,3.5,0.7,4.9,1.4c-0.1,1.8-1.5,4.1-2.5,6.3c-2.1,5-4.7,10.6-6.9,16c-0.2,0.6-0.1,1.6-0.3,2.1
			c-0.6,1.2-1.9,3.8-2.1,6.3c-0.2,2.2,1.2,4.9-1.1,6.6c-2.3-0.8-4.8-3.7-5.2-6.6c-0.4-2.3,0.5-5.6,0.3-8.7c-0.4-8.2-1-17.9-1.7-26.1
			C76.8,162.4,76.8,161.6,76.1,161.5"/>
		<path class="st0" d="M83.8,204.8l-0.2-0.1c-2.6-0.9-5-4-5.4-6.9c-0.2-1.2,0-2.7,0.1-4.3c0.1-1.5,0.3-3,0.2-4.5
			c-0.3-8-1-17.4-1.7-26c-0.1-0.2-0.2-0.4-0.3-0.6c-0.1-0.4-0.2-0.6-0.5-0.6l-1.4-0.2l1.3-0.5c0.3-0.1,0.6-0.2,1-0.2
			c1.4,0,2.6,1.1,3.7,1.9c0.3,0.3,0.6,0.5,0.9,0.7l0.2,0.1l0,0.2c-0.5,3.6,0.2,7.2,1,11c0.6,2.6,1.1,5.2,1.3,8.1
			c2-2.8,3.5-6.1,5-9.4c0.6-1.4,1.3-2.9,2-4.2c0-0.4,0-0.8,0-1.3c0-1.1-0.1-2.1,0.4-2.7l0.1-0.1h0.1c0.3-0.2,0.7-0.2,1-0.2
			c1.4,0,2.8,0.8,3.9,1.4l0.5,0.3v0.2c-0.1,1.4-0.8,3-1.7,4.8c-0.3,0.5-0.5,1.1-0.8,1.6l-1.3,2.8c-1.9,4.3-3.9,8.8-5.7,13.2
			c-0.1,0.2-0.1,0.6-0.1,0.9c0,0.4-0.1,0.8-0.2,1.2l0,0.1c-0.6,1.2-1.8,3.7-2,6.1c0,0.6,0,1.3,0.1,2c0.2,1.7,0.4,3.5-1.3,4.8
			L83.8,204.8z M77,161.8c0.1,0.2,0.1,0.3,0.2,0.5c0.1,0.2,0.2,0.4,0.2,0.5l0.1,0.1v0.1c0.7,8.6,1.3,18.1,1.7,26.1
			c0,1.5-0.1,3.1-0.2,4.5c-0.2,1.5-0.3,3-0.2,4.2c0.4,2.7,2.8,5.4,4.8,6.2c1.2-1.1,1.1-2.5,0.8-4.1c-0.1-0.7-0.2-1.4-0.1-2.1
			c0.2-2.5,1.5-5.1,2.1-6.3l0-0.1c0.1-0.2,0.1-0.5,0.1-0.9c0-0.4,0-0.8,0.2-1.2c1.9-4.4,3.8-8.9,5.7-13.2l1.2-2.8
			c0.2-0.6,0.5-1.1,0.8-1.7c0.8-1.5,1.4-3,1.6-4.2l-0.1-0.1c-1.3-0.7-2.9-1.6-4.2-1.2c-0.3,0.5-0.2,1.3-0.2,2.1c0,0.5,0,1,0,1.4
			l0,0.1c-0.7,1.4-1.4,2.9-2.1,4.3c-1.6,3.6-3.4,7.3-5.7,10.4l-0.6,0.8l0-1c-0.2-3.3-0.8-6.2-1.4-9c-0.8-3.8-1.5-7.4-1.1-11
			c-0.3-0.2-0.5-0.4-0.8-0.7C79.2,162.7,78.1,161.8,77,161.8"/>
		<path class="st0" d="M31.9,91.2c-0.6,2.8-3.2,2-5.2,2.8c-1.5,0.6-5.2,3-7.3,4.5c-3,2-5,4.2-7.3,7.3c-2.1,2.8-6.1,7.7-3.1,12.9
			C20,117,24.3,107.4,31.2,101v-2.1c2.1-1.6,5.2-2.2,8-0.7c0.4,1.7-1.2,2.7-1.7,4.2c-1.4,3.9-1.7,8.6-2.1,12.5
			c4.5-2.1,7.5-5.7,10.4-9.4c-0.4,3.1-2.5,5.7-4.5,8.4c-1.9,2.6-3.6,5.8-5.9,7.7c-2.7-0.7-3.2-3.6-4.5-5.6c0.8-5.4,1.2-8.6,1.3-14.3
			c-3.5,3.7-6.2,8.2-8.4,13.2c-4,2.7-5.6,8-10.8,8.7c-10.3,1.5-11.5-13.1-7.3-19.5c1-1.4,2.8-3.2,4.5-4.8
			c3.8-3.6,11.8-9.6,16.4-10.8c-0.4-1.1,1.1-0.3,0.7-1.4C29.5,87.7,30.7,89.4,31.9,91.2"/>
		<path class="st0" d="M11.6,124.1c-3,0-5.4-1.5-6.9-4.3c-2.4-4.4-2.1-11.7,0.7-16c0.9-1.3,2.4-2.9,4-4.4L10,99
			c3.7-3.7,11.6-9.4,16.2-10.8c0-0.2,0-0.3,0-0.4c0.2-0.3,0.4-0.4,0.7-0.4l0.1,0c0,0,0-0.1,0-0.2l-0.3-0.7l0.8,0.3
			c2.3,0.7,3.6,2.5,4.7,4.4l0.1,0.1l-0.1,0.2c-0.4,2.2-2.1,2.4-3.6,2.6c-0.6,0.1-1.3,0.2-1.9,0.4c-1.6,0.6-5.9,3.6-7.2,4.5
			c-2.8,1.9-4.8,3.9-7.2,7.2l-0.3,0.4c-2,2.7-5.4,7.2-2.9,11.8c7.7-1.3,12.2-6.6,16.5-11.8c1.7-2,3.3-4,5.2-5.7v-2.1l0.2-0.1
			c2.5-1.8,5.7-2.1,8.4-0.7l0.2,0.1v0.2c0.4,1.2-0.3,2.1-0.9,3c-0.3,0.4-0.6,0.9-0.8,1.3c-1.2,3.4-1.6,7.4-1.9,11l-0.1,0.8
			c4.1-2.2,7.1-5.6,9.7-9l0.8-1.1l-0.2,1.4c-0.4,2.9-2.3,5.4-4.1,7.9l-0.5,0.6c-0.6,0.8-1.2,1.6-1.7,2.4c-1.3,2-2.6,3.9-4.3,5.2
			l-0.1,0.2l-0.2,0c-2.1-0.5-2.9-2.2-3.6-3.8c-0.3-0.7-0.7-1.3-1.1-1.9l-0.1-0.1v-0.1c0.8-5,1.2-8.2,1.4-13.2
			c-2.9,3.2-5.4,7.3-7.6,12.4l0,0.1l-0.1,0.1c-1.5,1-2.6,2.4-3.8,3.7c-1.9,2.2-3.8,4.5-7.2,5C12.6,124,12.1,124.1,11.6,124.1
			 M26.9,88.1c0,0.1,0,0.1,0,0.1l0.2,0.4l-0.4,0.1c-4.4,1.1-12.4,7-16.2,10.7l-0.7,0.6c-1.5,1.5-3,3-3.8,4.2c-2.7,4.1-3,11-0.7,15.2
			c1,1.7,2.8,3.9,6.2,3.9c0.4,0,0.9-0.1,1.4-0.1c3.1-0.4,4.9-2.5,6.7-4.8c1.2-1.3,2.4-2.8,3.9-3.8c2.4-5.5,5.2-9.9,8.4-13.2l0.7-0.7
			l-0.1,1c-0.1,5.6-0.5,8.9-1.3,14.2c0.4,0.6,0.7,1.3,1,1.9c0.7,1.5,1.4,2.9,3,3.4c1.5-1.3,2.8-3.2,4-5c0.6-0.8,1.1-1.7,1.7-2.5
			l0.5-0.7c1.4-1.9,2.9-3.8,3.5-5.9c-2.6,3.1-5.5,6.3-9.5,8.2l-0.6,0.3l0.2-2.1c0.4-3.6,0.7-7.8,2-11.2c0.2-0.6,0.6-1.1,0.9-1.5
			c0.6-0.8,1-1.4,0.9-2.2c-2.4-1.1-5.2-0.8-7.3,0.7v2l-0.1,0.1c-1.9,1.8-3.6,3.9-5.2,5.8c-4.5,5.3-9,10.8-17.2,12.1l-0.3,0l-0.1-0.2
			c-2.9-5.1,0.7-10,2.9-12.9l0.3-0.4c2.5-3.3,4.5-5.4,7.4-7.4c1.6-1.1,5.7-3.9,7.4-4.5c0.6-0.3,1.4-0.4,2-0.5
			c1.5-0.2,2.6-0.4,2.9-1.9c-1-1.5-1.9-2.9-3.7-3.7c0,0,0,0.1,0,0.1c-0.2,0.3-0.5,0.3-0.7,0.4L26.9,88.1z"/>
		<path class="st0" d="M206.3,21.9c0.2-0.3,0.4-0.6,0.4-1.1c0.2,0.2,0.6,0.3,1,0.3C207.6,21.8,207.1,22,206.3,21.9"/>
		<path class="st0" d="M206.7,22.3c-0.1,0-0.3,0-0.4,0l-0.6-0.1l0.3-0.5c0.2-0.3,0.3-0.5,0.3-0.9l0-0.7l0.6,0.4
			c0.2,0.2,0.4,0.3,0.8,0.3h0.4l0,0.4C208.1,21.6,207.8,22.3,206.7,22.3"/>
		<path class="st0" d="M205.6,22.3c1.1,0.4-0.1,1.2-0.3,1.4C204.2,23.3,205.7,22.7,205.6,22.3"/>
		<path class="st0" d="M205.4,24.1l-0.3-0.1c-0.1,0-0.5-0.2-0.7-0.5c-0.1-0.4,0.2-0.7,0.4-0.9c0.1-0.1,0.3-0.2,0.3-0.3l-0.1-0.6
			l0.6,0.2c0.4,0.2,0.6,0.4,0.7,0.6c0.1,0.5-0.4,1-0.7,1.3c-0.1,0-0.1,0.1-0.1,0.1L205.4,24.1z"/>
		<path class="st0" d="M206.3,28.5c0.1-0.5,0.9-0.3,1.4-0.3C207.6,29,206.8,29,206.3,28.5"/>
		<path class="st0" d="M207,29.2c-0.4,0-0.7-0.2-1-0.4l-0.1-0.1l0-0.2c0.2-0.6,0.9-0.6,1.1-0.6h0.4c0.1,0,0.2,0,0.2-0.1l0.5,0l0,0.5
			C208,28.9,207.6,29.2,207,29.2"/>
		<path class="st0" d="M208.1,21.2c1.8,0.8,3.2,2.1,4.8,3.1c-1.6,0.9-3.6-2.6-5.3-1.7C206.9,22.5,208.1,21.7,208.1,21.2"/>
		<path class="st0" d="M212.3,24.9c-0.7,0-1.5-0.6-2.3-1.1c-0.7-0.6-1.6-1.1-2.2-0.8l-0.1,0.1h-0.1c-0.3-0.1-0.5-0.2-0.6-0.4
			c-0.2-0.3,0.1-0.7,0.3-1c0.1-0.1,0.3-0.3,0.3-0.3l0-0.7l0.6,0.2c1.5,0.6,2.6,1.5,3.8,2.3c0.4,0.3,0.8,0.6,1.2,0.8l0.5,0.4
			l-0.5,0.3C212.9,24.8,212.6,24.9,212.3,24.9 M208.3,22.1c0.8,0,1.6,0.6,2.3,1.1c0.4,0.3,0.8,0.6,1.2,0.8c-0.1-0.1-0.2-0.2-0.3-0.2
			c-1.1-0.8-2-1.5-3.2-2c-0.1,0.1-0.1,0.2-0.2,0.3l0,0C208.1,22.1,208.2,22.1,208.3,22.1"/>
		<path class="st0" d="M206,31.3c0.4-0.1,1.2,1,0.3,1.1c-0.7-1.6-2-0.2-2.4-2.1c1-0.4,2.3-0.4,2.4-1.7c-0.4-0.1-0.2-0.4,0-0.7
			c-1-0.5-1.2-1.2-2.4-2.1c0.4-1.2-0.3-1.5,0.3-2.1c-0.1,0.6,0.5,0.9,0.7,0.4c-1.5-0.6,0.6-1.2-0.3-1.7c-0.7,0.8-1.2-0.7-0.7,1.1
			c-0.4-1-2.6-0.2-2.4-1.7c0.4-0.6,3.1-1,4.5,0c0-0.9,0-1.7-0.4-2.1c1.2,1.1,1.5-0.6,2.1-1.1c-0.2-0.6-1.6,0-1.7-0.7
			c1.1-0.2-0.1-1.6,1.4-0.7c-1.8-2.4-2.9-5.5-5.5-7.3c-3.6-2.3-13.7-3.8-18.5-4.2c-3-0.2-6.1,0.6-8.4-0.7c-4.8,1.7-9.9,2.5-16,2
			c-8-0.4-16.3-2-24-2.4c-2.9-0.2-5.8,0.1-8.7,0c-6.7-0.4-13.5-1.4-19.8-1.1c-21.6,1.3-38.7,7.6-54.3,18.4c1.4-0.1,2.2,1.7,3.1,2.1
			c0.9,0.3,2.8,0.5,3.8,0.7c11.6,2,29.4,4.6,42.8,5.9c8.4,0.8,17.2,0.5,25.1,2.8c0.1,2-1,2.1-1.5,4.7c-0.2,0.6-0.5,1.6-0.7,1.8
			c-0.6,5.6-3,8.3-4.3,14.4c-0.5,1.7-1.3,2.8-1.8,4.2c-0.5,1.3-1.2,2.5-1.4,3.1c-0.2,0.5-2.6,5.8-2.2,8.3c-1.1,0.1-1.1,1.4-2.1,1.7
			c-1.2,5.5-4.4,8.3-6.6,13.6c-1.2,2.2-2.3,4-3.5,5.9c-1.8,2.9-4.1,6.1-6.3,9.4c-4.2,6.6-8.5,13.1-13.2,18.8c-3.1,3.7-7,8-11.5,9.4
			c-3.4-1.6-2.8-5.9-2.4-9.1c0.2-1-0.1-2,0-2.4c1.7-7.2,8.7-12.9,11.5-17.8c9.5-9.8,18.5-23.8,25.1-36.9c1.3-2.6,1.5-5.4,2.4-7.7
			c1.5-3.4,2.2-5.9,3.5-8.6c0.9-0.8,2.5-2.3,1.4-3.8c-1.4-0.3-2.3,1.3-3.8,1.7c-0.8,0.2-1.8-0.1-2.5,0.3c-1.6,1.3-2,2.5-3.1,4.2
			c-3.3,2.6-8,10.4-10.4,16c0.4-0.1,0.4,0.4,0.8,0c0.8-0.8,1.9-2.7,2.3-3.5c0.7-1.2,1.2-2.9,1.8-4.2c3.3-3.1,5-7.5,10.4-8.4
			c-1.7,3.6-2.7,7.5-4.5,11.2c-0.4,0.8-1.3,1.4-1.8,2.1c-0.5,0.9-0.6,1.9-1,2.8c-6.4,11.7-14.2,23-22.7,31.3c1-1.6,2.4-3.7,2.9-5.4
			c0.3-0.3,0.4-1,0.9-1.2c1.4-4.4,4.1-7.8,5.8-12.3c1.2-2.9,2.2-5.4,3.6-6.9c0.4-1.1,0.7-1.3,0.7-2.9c0.6-0.6,2-2.3,0.7-2.7
			c-1.5,2-2,4.4-3.3,6.2c-0.2,1.2-0.8,1.2-1.3,3c-0.5,1.1-1,1.6-1.4,2.4c-1.7,4.5-4.1,7.7-6.6,12.6c-0.3,0.5-0.3,0.5-0.7,1.3
			c-2.4,4.4-4.4,9-7,13.2c-9,6.3-13.3,17.2-25.4,20.2c0.6-7.7,2.4-15.7,5.2-21.6c-1-1.1-3-1.2-5.2-1.1c-0.1,2.3-1.3,3.1-1.1,4.5
			c0.1-0.4-0.1-1,0.4-1c-0.2,5.2-4.2,11.8-3.5,17.1c0.3,2.1,2.1,2.7,2.4,4.8c-4.2,0.4-9.6,1.3-12.9,0.7c0.1,1.6,1.7,1.6,2.5,2.4
			c0.6,1.8,0.3,4.1,0,5.9H34c3.3,2.6-1.1,6,1,10.5c-0.2,0.9-0.6,1.6-1,2.4c1.7,17.5-6.6,29.2-4.5,46.3c-0.6,0.9-0.7,2.1-0.7,3.5
			c0.8,0.2,1.6,0.5,2.8,0.4c2.4,3,6.2,4.5,11.2,4.9c-0.6,1.1-2,1.5-2.8,2.4c6.2-1.4,15.4-3.8,18.1-10.8c-0.4,4.6,1.5,7.2,3.5,10.1
			c1.1,1.6,2.4,3.8,4.2,3.8c1.6-1.9,0.3-3.8,0.3-5.9c0-6.3,1.8-14,2.1-19.1c0-0.7-0.5-1.8-0.4-2.5c0,0,0.6-0.3,0.7-0.7
			c0.2-0.7,0.2-1.8,0.3-2.4c0.9-8.5,1.1-16.9-4.9-19.9c0.4,8.3-1.2,17.6-3.5,25.8c1.1-19-9.2-27.4-20.5-34.8
			c3.1-2.2,10.6,2.1,13.6-1.1c-2.9-2.8-10.5-1.2-14-3.5c-0.2-2.5,0-3.4,0-6.2c4.5-3.1,12.4,0.5,17.8-1.7c-3-4.1-11.6-1.9-17.1-2.8
			c1.1-2.1-0.1-2.3,0-3.8c3.3-0.5,6.8-1.2,10.4-0.7c3.3,0.4,6.5,2.3,9.8,3.1c2.4,0.6,5-0.1,6.6,1.7c0.6,4.5-0.6,8.9-0.7,12.5
			c-0.1,1.7,1.1,3.3,0,4.5c1.5-0.5,2.9,2.2,4.1,1.7c0-3.9,1.4-8.7,1.4-12.9c0.1-1.9-0.1-4.4,1.4-5.2c5.8,0.7,12.1,3.6,18.1,2.1
			c-1.1-4.2-6.6-4-10.4-5.6c4.8-5.6,9.7-10.9,13.2-17.8c-0.1,3.7-2.5,7.4-2.1,10.8c0.1,0.9,1.4,2.4,2.1,3.8c1.5,2.9,2.4,5.8,5.2,5.2
			c1.2-4.2,3.6-7.1,4.9-11.2c0.9-0.1,1.8-0.5,1.7-2.4c1.5,0.4,0.7-1.4,2.1-1c0.9-3.1,1.1-4.9,2.5-7.7c0,1.3-0.4,2.2-0.7,3.2
			c2.6,0.2,2.4-4,1.7-5.9c-1.3,0.4-1.6,2.8-2.1,3.5c0.2-0.3-1.2,0.4-1.1,0.4c-2.1,1.9-3,4.9-4.9,6.9c-1.9,2.2-4.8,4.1-7,5.6
			c0-5.8,1.6-10.1,2.5-15c0.5-0.1,0.3-1.1,1.3-0.7c1.5-5.4,1.9-12.1,6-15c1.2-0.4,1.6,1.6,2.4,0.4c-0.7-1.1-1.1-1.7-2.1-1.7
			c5.5-6.6,9.6-14.5,13.2-23c0.3-1,5.9-21.2,5.9-21.6c-0.6-0.4,0.4-2.1,0-3.5l2.8-7.7c0.3-1.1,1.1-2.9,1.8-3.5
			c12.3,2.3,23.9,5.4,36.9,7c1.9,2.2,4.5,2.6,8.3,2.5c8.6-0.2,17.3-3.8,23.7-5.2c0.9-1.1,0.4-2,1.7-2.1c1,0.3-0.8,0.6-0.4,1.4
			c2.7-1.1,3.5-0.5,6.6-2.1c1-1.3,0-3.2,1.1-3.1C207.5,32.1,206.5,30.5,206,31.3 M39.9,153.9c2.9,1.3,6.7,3.9,8.7,6.6
			c4,5.4,5.2,16.6,4.2,24.3c-0.8,5.9-3.8,11.2-6.6,14.6c-5.3,0.2-10.3,0.1-12.9-2.4c1.9-2,1.7-3.6,2.1-7.3c0.4-3.9,1.2-6.5,1.8-11.5
			c0.7-7.2,2.7-14.8,2-23.3v-1L39.9,153.9L39.9,153.9z M60.1,129.2c-2-1.6-4.8-2.4-8-2.8c4.5-2.4,9.5-4.4,12.9-8
			c0.8-0.6-0.5,1.6-0.7,2.1c0.1,0.8-0.1,1.6,0,2.5c0.4,3.1,1.9,5,3.2,7.3C65.6,130.9,62.9,129.3,60.1,129.2"/>
		<path class="st0" d="M65.8,209.3l-0.2,0c-1.8,0-3.1-1.9-4.1-3.5l-0.3-0.4c-1.7-2.5-3.4-4.9-3.6-8.6c-3.2,5.6-10.6,7.9-17.6,9.4
			l-1.1,0.2l0.7-0.8c0.4-0.5,0.9-0.8,1.4-1.1c0.4-0.3,0.8-0.5,1.1-0.8c-4.8-0.4-8.4-2-10.6-4.8c-1,0.1-1.7-0.1-2.4-0.3l-0.6-0.1
			l0-0.3c0-1.6,0.3-2.7,0.7-3.5c-1-8.7,0.6-16.1,2.2-23.3c1.5-7.1,3.1-14.3,2.3-22.9l0-0.1l0-0.1c0.1-0.2,0.2-0.4,0.3-0.5
			c0.3-0.6,0.6-1.1,0.7-1.7c-1-2.2-0.5-4.1-0.1-5.8c0.5-1.8,0.8-3.2-0.7-4.4l-0.9-0.7h2.5c0.2-1.5,0.5-3.6,0-5.3
			c-0.2-0.2-0.5-0.4-0.9-0.6c-0.7-0.4-1.6-0.8-1.6-2v-0.5l0.5,0.1c0.7,0.1,1.6,0.2,2.7,0.2c2.2,0,4.8-0.3,7.3-0.6
			c0.8-0.1,1.6-0.2,2.4-0.3c-0.2-0.7-0.6-1.3-1-1.8c-0.6-0.7-1.1-1.5-1.3-2.6c-0.4-3.1,0.7-6.4,1.8-9.8c0.7-2.2,1.4-4.3,1.6-6.3
			h-0.3c-0.2-0.8,0.1-1.5,0.4-2.2c0.3-0.6,0.6-1.3,0.6-2.4l0-0.4h0.3c0.5,0,0.9,0,1.3,0c2.1,0,3.3,0.4,4.2,1.2l0.2,0.2l-0.1,0.3
			c-2.6,5.3-4.5,12.9-5.1,20.9c7.2-2,11.7-6.9,16-11.7c2.6-2.9,5.4-5.9,8.7-8.3c1.5-2.5,2.8-5.1,4-7.6c0.9-1.8,1.9-3.7,2.9-5.6
			c0.3-0.8,0.3-0.8,0.7-1.4c0.9-1.7,1.8-3.2,2.7-4.7c1.5-2.5,2.9-4.9,3.9-7.7c0.2-0.3,0.3-0.6,0.5-0.8c0.3-0.4,0.6-0.9,0.9-1.6
			c0.2-0.9,0.5-1.4,0.8-1.8c0.2-0.3,0.4-0.6,0.4-1.1l0.1-0.2c0.5-0.7,1-1.7,1.4-2.7c0.5-1.1,1-2.3,1.8-3.3
			c2.7-5.9,7.3-13.5,10.5-16.1c0.4-0.5,0.6-0.9,0.8-1.3c0.6-1.1,1.1-2,2.4-2.9c0.4-0.3,0.8-0.3,1.3-0.3h0.6c0.2,0,0.4,0,0.7-0.1
			c0.5-0.2,1-0.5,1.4-0.8c0.8-0.6,1.5-1.1,2.5-0.9h0.2l0.1,0.1c1.2,1.9-0.7,3.6-1.4,4.3c-0.6,1.3-1.1,2.5-1.6,3.9
			c-0.6,1.5-1.1,3-1.9,4.7c-0.3,0.9-0.6,1.9-0.8,3c-0.4,1.6-0.8,3.2-1.6,4.7c-7.2,14.5-16.4,28-25.1,36.9c-1,1.7-2.5,3.6-4.1,5.5
			c-2.9,3.5-6.2,7.6-7.3,12.1c0,0.2,0,0.5,0,0.7c0,0.5,0.1,1,0,1.6c-0.4,3-1,7.1,2.1,8.6c4.2-1.4,7.9-5.3,11.2-9.2
			c4.8-5.7,9.1-12.3,13.2-18.7c1.1-1.6,2.1-3.1,3.1-4.6c1.1-1.6,2.2-3.2,3.2-4.7c1.1-1.9,2.3-3.8,3.4-5.9c0.9-2.2,2-3.9,3-5.6
			c1.5-2.5,2.8-4.7,3.6-7.9l0.1-0.2l0.2-0.1c0.3-0.1,0.4-0.4,0.7-0.7c0.2-0.4,0.5-0.8,1.1-1c-0.2-1.7,0.6-4.4,2.1-8l0.1-0.2
			c0.1-0.4,0.3-0.8,0.6-1.3c0.3-0.5,0.6-1.2,0.8-1.9c0.2-0.6,0.5-1.1,0.8-1.7c0.3-0.7,0.7-1.5,1-2.5c0.6-2.8,1.4-4.8,2.2-6.8
			c0.9-2.3,1.8-4.5,2.1-7.5v-0.1l0.1-0.1c0.1-0.1,0.3-0.8,0.4-1.2l0.2-0.5c0.2-1.2,0.6-1.9,0.9-2.4c0.3-0.6,0.6-1,0.6-1.9
			c-5.4-1.5-11.3-1.8-17.1-2.1c-2.5-0.2-5.2-0.3-7.7-0.5c-13.9-1.4-32-4.1-42.8-6c-0.3-0.1-0.8-0.1-1.3-0.2c-1-0.2-2.1-0.3-2.6-0.6
			c-0.4-0.2-0.8-0.5-1.2-1c-0.5-0.6-1-1.1-1.7-1.1l-1.4,0.1l1.1-0.8C68.3,10.2,85.6,4.3,106.4,3.1c0.9,0,1.8-0.1,2.8-0.1
			c3.4,0,6.9,0.3,10.3,0.6c2.2,0.2,4.5,0.4,6.8,0.5c1.5,0.1,2.9,0.1,4.3,0c1.5,0,2.9-0.1,4.4,0c3.9,0.2,8.1,0.7,12.2,1.2
			c3.9,0.5,8,0.9,11.9,1.2c5.9,0.4,10.9-0.3,15.9-2l0.2-0.1l0.1,0.1c1.1,0.6,2.4,0.7,3.4,0.7c0.6,0,1.1,0,1.7,0
			c1.1-0.1,2.1-0.1,3.1,0c3.9,0.3,14.8,1.7,18.6,4.2c1.9,1.2,3.1,3.2,4.1,5c0.5,0.9,1,1.7,1.5,2.4l-0.5,0.5
			c-0.1-0.1-0.2-0.1-0.3-0.1c0,0.1-0.1,0.3-0.2,0.5h0.2c0.5,0,1.1,0,1.2,0.6l0.1,0.2l-0.2,0.2c-0.1,0.1-0.3,0.3-0.4,0.6
			c-0.2,0.4-0.6,0.9-1.2,0.9c0.1,0.4,0,0.9,0,1.4v0.7l-0.6-0.4c-0.5-0.3-1.2-0.5-2.1-0.5c-1,0-1.6,0.2-1.8,0.4
			c0,0.3,0.2,0.4,0.9,0.6c0.2,0,0.3,0,0.5,0.1c0-0.1,0.1-0.1,0.1-0.2l0.1-0.2h0.3c0.1,0,0.2,0,0.2,0.1c0.1,0,0.3,0.1,0.4-0.1
			l0.2-0.3l0.3,0.2c0.3,0.1,0.4,0.3,0.4,0.5c0,0.3-0.1,0.6-0.3,0.8c-0.1,0.1-0.1,0.1-0.2,0.2c0,0,0.2,0,0.4,0.1l0.4,0.2l-0.1,0.3
			c-0.2,0.4-0.6,0.6-0.9,0.5c0,0.2,0,0.6-0.1,0.9c0.5,0.4,0.8,0.7,1.1,1c0.3,0.3,0.6,0.7,1.1,0.9l0.4,0.2l-0.2,0.4
			c0,0-0.1,0.1-0.1,0.1l0.1,0.1l0,0.3c-0.1,1.3-1.2,1.6-2,1.9c-0.1,0-0.2,0-0.3,0.1c0.2,0.5,0.4,0.6,0.8,0.6c0.2,0,0.3,0.1,0.4,0.1
			l0.1-0.1c0.2-0.4,0.5-0.4,0.7-0.4c0.4,0,0.7,0.3,1.1,0.5c0.3,0.2,0.6,0.4,0.9,0.4l0.1,0.1l0,0.7c-0.1,0.1-0.2,0.5-0.2,0.7
			c0,0.6,0,1.5-0.6,2.3l-0.1,0.1c-1.8,0.9-2.9,1.1-3.9,1.3c-0.8,0.1-1.6,0.3-2.7,0.8l-0.3,0.2l-0.2-0.3c-0.1-0.1-0.1-0.3-0.1-0.4
			c-0.1,0.3-0.2,0.8-0.6,1.2l-0.1,0.1l-0.1,0c-1.9,0.4-4.1,1-6.4,1.7c-5.3,1.6-11.4,3.4-17.4,3.5c-3.7,0-6.5-0.2-8.5-2.5
			c-8.6-1-16.6-2.8-24.5-4.5c-3.9-0.8-8-1.7-12.1-2.5c-0.6,0.7-1.2,2.3-1.6,3.2l-2.7,7.6c0.2,0.7,0,1.4-0.1,2.1
			c-0.1,0.3-0.2,1-0.1,1l0.2,0.1v0.3c-0.1,0.5-5.9,21.5-6,21.6c-4.1,9.8-8.2,17-12.9,22.7c0.7,0.3,1.1,1,1.7,1.8l0.2,0.2l-0.2,0.2
			c-0.1,0.2-0.4,0.6-0.8,0.6c-0.3,0-0.6-0.2-0.8-0.4c-0.3-0.2-0.6-0.5-1-0.3c-2.9,2.1-3.8,6.4-4.7,10.7c-0.3,1.3-0.6,2.7-1,4
			l-0.1,0.4l-0.4-0.2c-0.2,0-0.3-0.1-0.3-0.1c-0.1,0-0.1,0-0.3,0.2c-0.1,0.1-0.2,0.4-0.4,0.5c-0.2,1.4-0.6,2.7-0.8,4
			c-0.7,3.1-1.5,6.2-1.6,10c2.3-1.5,4.7-3.3,6.3-5.1c0.8-0.9,1.4-2,2.1-3.1c0.8-1.4,1.7-2.8,2.8-3.9l0,0l0.2,0.3l-0.1-0.3
			c0,0,0.1-0.1,0.2-0.1c0.4-0.2,0.6-0.3,0.7-0.3c0.1-0.2,0.2-0.5,0.3-0.8c0.3-1,0.8-2.3,1.9-2.6l0.3-0.1l0.1,0.4
			c0.5,1.5,0.8,4.1-0.2,5.5c-0.4,0.7-1.1,1-1.9,0.9l-0.2,0c-0.2,0.6-0.3,1.3-0.6,2c-0.2,0.7-0.4,1.4-0.6,2.3l-0.1,0.4l-0.4-0.1
			c-0.2-0.1-0.3-0.1-0.5,0.3c-0.1,0.3-0.4,0.8-1.1,0.8c-0.1,1.7-1,2.1-1.8,2.3c-0.6,1.9-1.5,3.6-2.3,5.2c-0.9,1.8-1.9,3.6-2.5,5.7
			l-0.1,0.2l-0.2,0c-0.3,0.1-0.6,0.1-0.8,0.1c-2.2,0-3.3-2.1-4.3-4.4c-0.2-0.4-0.3-0.7-0.5-1.1c-0.3-0.6-0.7-1.2-1-1.7
			c-0.5-0.9-1.1-1.7-1.1-2.2c-0.3-1.9,0.4-4,1-6c0.3-1,0.6-1.9,0.8-2.9c-3,5.3-7,9.9-10.8,14.3l-1.2,1.3c0.9,0.3,2,0.6,3,0.9
			c3.1,0.7,6.3,1.6,7.2,4.8l0.1,0.4l-0.4,0.1c-1.2,0.3-2.5,0.4-3.8,0.4c-2.9,0-6-0.7-8.9-1.4c-1.8-0.5-3.6-0.9-5.4-1.1
			c-1.1,0.8-1.1,2.8-1.1,4.4v0.5c0,2.1-0.4,4.3-0.7,6.5c-0.3,2.2-0.7,4.3-0.7,6.3v0.3l-0.2,0.1c-0.1,0.1-0.3,0.1-0.4,0.1
			c-0.7,0-1.2-0.5-1.9-1c-0.7-0.5-1.4-1-2-0.8l-0.4-0.6c0.5-0.6,0.4-1.3,0.1-2.3c-0.1-0.6-0.3-1.2-0.3-2c0-1.3,0.2-2.6,0.4-4.1
			c0.3-2.6,0.6-5.4,0.3-8.2c-1-1-2.3-1.2-3.8-1.2c-0.8,0-1.7-0.1-2.6-0.3c-1.4-0.3-2.8-0.9-4.1-1.4c-1.8-0.7-3.7-1.5-5.6-1.7
			c-0.8-0.1-1.6-0.1-2.5-0.1c-2.2,0-4.5,0.3-6.6,0.6l-0.8,0.2c0,0.3,0.1,0.6,0.2,0.8c0.2,0.6,0.4,1.2,0,2.4c0.8,0.1,1.8,0.2,3.1,0.2
			c0.8,0,1.5-0.1,2.3-0.1c0.8,0,1.6,0,2.4,0c3.6,0,7.2,0.3,9,2.8l0.3,0.4l-0.5,0.2c-1.3,0.6-2.9,0.8-4.9,0.8c-1.3,0-2.5-0.1-3.8-0.2
			c-1.2-0.1-2.5-0.2-3.6-0.2c-2.4,0-3.9,0.4-5.2,1.2c0,1,0,1.7,0,2.4c-0.1,1.1-0.1,2,0,3.5c1.6,0.9,4,1.2,6.3,1.3
			c2.9,0.3,5.8,0.5,7.5,2.1l0.3,0.2l-0.3,0.3c-0.8,0.9-2.1,1.3-3.8,1.3c-1.2,0-2.5-0.2-3.9-0.4c-2.2-0.3-4.2-0.5-5.4-0.1
			c10.6,7.1,20.1,14.9,20.2,31.5c1.6-6.3,3.1-14.6,2.7-22.5l0-0.6l0.6,0.3c6.3,3.1,5.9,12.1,5.1,20.2l0,0.2
			c-0.1,0.7-0.2,1.6-0.4,2.3c-0.1,0.3-0.4,0.6-0.7,0.8c0,0.3,0.1,0.7,0.2,1c0.1,0.4,0.2,0.9,0.2,1.2c-0.2,2.1-0.6,4.6-0.9,7.3
			c-0.6,3.8-1.2,8.1-1.2,11.8c0,0.6,0.1,1.2,0.2,1.8c0.3,1.4,0.6,2.8-0.6,4.3L65.8,209.3z M57.6,194.9l0.7,0.1
			c-0.3,4.5,1.4,7,3.4,9.8l0.3,0.4c0.9,1.4,2,3,3.4,3.2c0.8-1.2,0.6-2.3,0.4-3.6c-0.1-0.6-0.2-1.3-0.2-1.9c0-3.8,0.7-8.1,1.2-11.9
			c0.4-2.6,0.8-5.1,0.9-7.2c0-0.3-0.1-0.7-0.2-1.1c-0.1-0.5-0.2-1-0.2-1.4l0.4,0.1l-0.1-0.3c0.1-0.1,0.4-0.3,0.5-0.5
			c0.1-0.6,0.2-1.5,0.3-2.1v-0.3c0.8-7.7,1.1-16-4.1-19.2c0.3,9.2-1.8,18.8-3.5,25.2l-0.8-0.1c1.1-18.8-9-27-20.4-34.5l-0.4-0.3
			l0.4-0.3c0.7-0.5,1.6-0.7,2.8-0.7c1.2,0,2.4,0.2,3.7,0.4c1.3,0.2,2.6,0.4,3.7,0.4c1.3,0,2.3-0.2,3-0.8c-1.5-1.2-4.2-1.4-6.7-1.6
			c-2.5-0.2-5.1-0.4-6.9-1.5l-0.2-0.2v-0.2c-0.1-1.6-0.1-2.6,0-3.7c0-0.7,0-1.5,0-2.6v-0.2l0.2-0.1c1.4-1,3.2-1.4,5.8-1.4
			c1.2,0,2.5,0.1,3.7,0.2c1.2,0.1,2.5,0.2,3.7,0.2c1.7,0,3-0.2,4.2-0.6c-1.7-1.8-4.9-2.1-8.1-2.1c-0.8,0-1.6,0-2.4,0
			c-0.8,0-1.6,0-2.3,0c-1.5,0-2.7,0-3.7-0.2l-0.5-0.1l0.3-0.5c0.6-1.2,0.5-1.6,0.2-2.2c-0.1-0.4-0.3-0.8-0.3-1.4v-0.3l1.5-0.2
			c2.2-0.3,4.4-0.7,6.7-0.7c0.9,0,1.8,0,2.6,0.1c2,0.3,3.9,1,5.8,1.8c1.3,0.5,2.7,1,4,1.4c0.9,0.2,1.7,0.2,2.4,0.3
			c1.6,0.1,3.3,0.2,4.5,1.5l0.1,0.1l0,0.1c0.4,2.9,0,5.9-0.3,8.5c-0.2,1.4-0.4,2.8-0.4,4c0,0.5,0.1,1.2,0.2,1.7
			c0.2,0.8,0.4,1.6,0.1,2.4c0.6,0.1,1.2,0.6,1.8,1c0.5,0.4,0.9,0.8,1.3,0.8c0-2,0.4-4.1,0.7-6.1c0.3-2.2,0.7-4.4,0.7-6.4v-0.4
			c0-1.9,0-4.2,1.6-5.1l0.1-0.1l0.2,0c1.8,0.2,3.7,0.7,5.6,1.1c2.9,0.7,5.9,1.4,8.7,1.4c1.2,0,2.2-0.1,3.2-0.3
			c-0.9-2.5-3.6-3.2-6.5-3.9c-1.2-0.3-2.5-0.6-3.6-1.1l-0.5-0.2l1.8-2.1c4.2-4.9,8.6-9.9,11.7-16l0.7,0.2c-0.1,1.7-0.6,3.4-1.1,5.1
			c-0.6,2-1.2,3.9-1,5.7c0,0.4,0.5,1.2,1,1.9c0.4,0.6,0.7,1.2,1.1,1.8c0.2,0.4,0.3,0.7,0.5,1.1c1.1,2.4,2,4.2,4.1,3.9
			c0.6-2.1,1.5-3.9,2.4-5.6c0.8-1.6,1.7-3.3,2.4-5.3l0.1-0.2l0.2,0c0.8-0.1,1.5-0.3,1.4-2.1l-0.1-0.5l0.6,0.2c0.1,0,0.2,0,0.3,0
			c0.2,0,0.2,0,0.3-0.3c0.2-0.3,0.4-0.8,1-0.8c0.2-0.7,0.4-1.4,0.5-1.9c0.4-1.5,0.7-2.9,1.4-4.5l-0.3-0.1l0,0.3
			c-0.1,0-0.5,0.2-0.6,0.2c-0.1,0.1-0.2,0.1-0.2,0.1c-1.1,1.1-1.9,2.4-2.6,3.7c-0.7,1.1-1.3,2.2-2.2,3.2c-1.8,2.1-4.6,4.1-7,5.7
			l-0.6,0.4V125c0-4.2,0.8-7.6,1.6-11c0.3-1.3,0.6-2.7,0.9-4.1l0-0.2l0.2-0.1c0.1,0,0.1,0,0.2-0.2c0.1-0.2,0.3-0.7,1-0.6
			c0.3-1.2,0.6-2.4,0.8-3.6c0.9-4.4,1.9-8.9,5.2-11.2c0.2-0.1,0.4-0.1,0.5-0.1c0.5,0,0.9,0.3,1.2,0.5c0.1,0.1,0.3,0.2,0.3,0.2
			s0.1,0,0.1,0c-0.6-1-0.9-1.3-1.7-1.3H106l0.5-0.6c4.8-5.7,9-13,13.2-22.9c0.4-1.1,5.3-19.3,5.9-21.3c-0.3-0.3-0.2-1-0.1-1.6
			c0.1-0.6,0.3-1.3,0.1-1.8l-0.1-0.1l0.1-0.1l2.8-7.6c0.3-1.1,1.2-3,1.8-3.6l0.2-0.1l0.2,0c4.1,0.7,8.3,1.7,12.3,2.5
			c7.9,1.7,16,3.4,24.6,4.4l0.1,0l0.1,0.1c1.9,2.1,4.5,2.4,8,2.3c5.9-0.1,11.9-1.8,17.1-3.4c2.3-0.7,4.4-1.3,6.4-1.7
			c0.2-0.3,0.3-0.6,0.4-0.9c0.1-0.5,0.3-1.2,1.5-1.2h0.1l0.1,0c0.1,0.1,0.5,0.2,0.5,0.5c0.1,0.3-0.2,0.5-0.3,0.6
			c0.8-0.2,1.4-0.4,2.1-0.5c1-0.2,2-0.4,3.6-1.2c0.4-0.5,0.4-1.2,0.4-1.8c0-0.3,0-0.7,0.1-0.9c-0.2-0.1-0.4-0.2-0.6-0.4l-0.1,0
			c0.1,0.1,0.1,0.2,0.1,0.3c0,0.3-0.2,0.7-0.7,0.7l-0.2,0l-0.1-0.2c-0.2-0.4-0.4-0.6-0.8-0.7l-0.2,0l0.1-0.1c-0.1,0-0.1,0-0.2,0
			c-0.5-0.1-1.2-0.2-1.5-1.5l-0.1-0.3l0.3-0.1c0.3-0.1,0.5-0.1,0.7-0.2c0.7-0.2,1.3-0.4,1.5-0.9c-0.1-0.1-0.2-0.2-0.2-0.2
			c0-0.2,0-0.3,0.1-0.6c-0.4-0.2-0.7-0.5-0.9-0.9c-0.3-0.3-0.7-0.7-1.2-1.1l-0.2-0.1l0.1-0.3c0.2-0.5,0.1-0.8,0.1-1.1
			c0-0.3-0.1-0.7,0.4-1.2v0c0,0,0-0.1,0-0.1l-0.5,0.2c-0.1-0.2-0.4-0.4-0.9-0.4c-0.7-0.1-1.6-0.3-1.5-1.5v-0.1l0.1-0.1
			c0.4-0.5,1.5-0.7,2.5-0.7c0.7,0,1.4,0.1,1.9,0.3c0-0.5,0-1-0.3-1.2l0.5-0.6c0.3,0.2,0.4,0.3,0.5,0.3c0.2,0,0.4-0.3,0.6-0.6
			c0.1-0.1,0.1-0.2,0.2-0.3c-0.1,0-0.2,0-0.2,0c-0.5,0-1.2,0-1.3-0.7v-0.3l0.3-0.1c0.2,0,0.3-0.1,0.3-0.4c0-0.3,0.1-0.5,0.3-0.5
			c-0.3-0.6-0.6-1.1-0.9-1.6c-1.1-1.7-2.1-3.6-3.9-4.8c-3.3-2.1-13-3.6-18.3-4.1c-1-0.1-2,0-3,0c-0.6,0-1.2,0.1-1.8,0.1
			c-1,0-2.4-0.1-3.6-0.7c-5,1.8-10.1,2.5-16,2c-3.9-0.2-8-0.7-11.9-1.2c-4.1-0.5-8.2-1-12.2-1.2c-1.4-0.1-2.9,0-4.3,0
			c-1.4,0-2.9,0.1-4.4,0c-2.3-0.1-4.6-0.3-6.8-0.5c-3.4-0.2-6.9-0.6-10.3-0.6c-1,0-1.8,0.1-2.8,0.1C86.1,5,69.1,10.7,53,21.7
			c0.6,0.2,1,0.7,1.4,1.1c0.3,0.3,0.6,0.7,0.9,0.7c0.6,0.2,1.6,0.4,2.5,0.5c0.5,0.1,1,0.1,1.3,0.2c10.8,1.9,28.9,4.6,42.8,5.9
			c2.5,0.2,5.2,0.4,7.7,0.5c5.8,0.3,11.9,0.7,17.5,2.3l0.3,0.1v0.3c0.1,1.2-0.3,1.8-0.7,2.5c-0.3,0.6-0.6,1.2-0.9,2.3l-0.2,0.5
			c-0.3,0.7-0.4,1.1-0.5,1.3c-0.3,3.1-1.3,5.3-2.2,7.7c-0.8,2-1.6,4-2.1,6.7c-0.3,1.1-0.7,1.8-1.1,2.6c-0.2,0.5-0.5,1-0.7,1.6
			c-0.3,0.7-0.6,1.4-0.9,2c-0.2,0.5-0.4,0.9-0.5,1.2l-0.1,0.2c-2.1,5-2.2,7.1-2,7.9l0.1,0.4l-0.4,0c-0.4,0-0.7,0.3-0.9,0.7
			c-0.2,0.3-0.4,0.7-0.9,0.9c-0.8,3.2-2.1,5.4-3.6,7.9c-1,1.7-2,3.4-3,5.5c-1.2,2.2-2.3,4.1-3.5,6c-1,1.5-2,3.1-3.2,4.8
			c-1,1.5-2.1,3-3.1,4.6c-4.1,6.4-8.4,13-13.2,18.8c-3.4,4.1-7.2,8.1-11.7,9.5l-0.2,0l-0.1,0c-3.7-1.7-3.1-6.2-2.7-9.4
			c0.1-0.6,0.1-1.1,0-1.5c0-0.4-0.1-0.8,0-1c1.1-4.7,4.5-8.8,7.5-12.4c1.6-1.9,3.1-3.7,4.1-5.4l0.1-0.1c8.7-8.9,17.8-22.3,25-36.8
			c0.7-1.4,1.1-3,1.5-4.6c0.3-1.1,0.5-2.1,0.9-3.1c0.8-1.8,1.4-3.2,1.9-4.7c0.5-1.4,1-2.7,1.6-4l0.1-0.1c1.1-1,2.1-2.1,1.4-3.2
			c-0.7,0-1.2,0.4-1.8,0.8c-0.5,0.4-1,0.8-1.6,1c-0.3,0.1-0.7,0.1-0.9,0.1h-0.6c-0.3,0-0.6,0-0.8,0.2c-1.1,0.9-1.6,1.7-2.2,2.7
			c-0.3,0.4-0.5,0.9-0.8,1.4l-0.1,0.1c-1.7,1.4-4,4.4-6,7.7c0.9-0.8,1.7-1.8,2.5-2.8c2-2.5,4.1-5,8.1-5.6l0.7-0.1l-0.3,0.7
			c-0.8,1.7-1.5,3.5-2.1,5.2c-0.7,2-1.5,4-2.5,5.9c-0.2,0.5-0.6,0.9-1,1.2c-0.3,0.3-0.6,0.6-0.8,0.9c-0.2,0.4-0.4,0.8-0.5,1.3
			c-0.2,0.5-0.3,0.9-0.6,1.4C95,77.5,87.2,88.3,79.1,96.4l-0.6-0.5c0.8-1.2,2.2-3.5,2.8-5.3l0.1-0.1c0.2-0.1,0.2-0.2,0.3-0.4
			c0.1-0.3,0.3-0.6,0.7-0.8c0.7-2.4,1.9-4.5,3-6.5c0.9-1.8,1.9-3.6,2.7-5.6l0.4-1c1.1-2.5,2-4.5,3.3-5.9c0.1-0.3,0.2-0.4,0.2-0.6
			c0.3-0.6,0.4-1,0.4-2.1v0c-0.1,0.3-0.3,0.5-0.4,0.8c-0.4,1.1-0.9,2-1.5,2.8c-0.1,0.6-0.3,0.9-0.5,1.3c-0.2,0.3-0.5,0.8-0.7,1.7
			c-0.4,0.8-0.7,1.3-1,1.7c-0.2,0.2-0.3,0.5-0.4,0.7c-1.1,2.8-2.5,5.2-4,7.8c-0.8,1.5-1.8,3-2.7,4.8c-0.3,0.5-0.3,0.5-0.7,1.3
			c-1,1.9-2,3.8-2.9,5.6c-1.3,2.6-2.6,5.3-4.1,7.7l-0.1,0.1c-3.3,2.3-6,5.3-8.7,8.2c-4.4,5-9.1,10.1-16.9,12.1l-0.5,0.1l0-0.5
			c0.7-8.2,2.6-16,5.1-21.5c-0.6-0.5-1.7-0.8-3.4-0.8c-0.3,0-0.6,0-1,0c-0.1,1-0.4,1.7-0.7,2.3c0,0.1-0.1,0.3-0.1,0.4l0.1,0v0.4
			c-0.1,2.4-0.9,5-1.8,7.6c-1,3.2-2.1,6.5-1.7,9.4c0.2,1,0.6,1.6,1.1,2.3c0.5,0.7,1.1,1.4,1.3,2.6l0.1,0.4l-0.4,0.1
			c-0.9,0.1-1.8,0.2-2.8,0.3c-2.6,0.3-5.2,0.6-7.4,0.6c-0.9,0-1.7,0-2.3-0.2c0.2,0.4,0.5,0.7,1.1,1c0.4,0.2,0.8,0.4,1.2,0.8l0.1,0.1
			c0.6,2,0.3,4.4,0,6l0,0.4h-1.1c1.1,1.4,0.7,2.9,0.3,4.5c-0.4,1.6-0.8,3.4,0.1,5.4l0.1,0.1l0,0.2c-0.2,0.7-0.5,1.4-0.8,2
			c-0.1,0.1-0.1,0.3-0.2,0.4c0.8,8.7-0.8,16-2.4,23c-1.6,7.5-3.2,14.6-2.1,23.2l0,0.1l-0.1,0.1c-0.4,0.7-0.6,1.6-0.6,3h0.1
			c0.7,0.2,1.3,0.4,2.3,0.3l0.2,0l0.1,0.2c2.2,2.7,5.9,4.4,10.9,4.7l0.6,0l-0.3,0.5c-0.4,0.8-1,1.1-1.6,1.6
			C48.4,203.4,55.3,200.8,57.6,194.9 M110.3,111.3l0.7,0.1c0,1.1-0.3,2-0.6,2.7c0.3-0.1,0.6-0.2,0.7-0.5c0.7-1,0.6-3.1,0.2-4.4
			c-0.5,0.4-0.8,1.2-1,1.9C110.4,111.1,110.3,111.2,110.3,111.3 M82.1,90.8c-0.3,0.8-0.7,1.8-1.1,2.6c7.2-7.6,14.1-17.5,20.2-28.8
			c0.2-0.4,0.4-0.8,0.5-1.3c0.1-0.5,0.3-1.1,0.6-1.6c0.2-0.4,0.5-0.7,0.9-1c0.3-0.3,0.7-0.7,0.8-1.1c1-1.9,1.6-3.9,2.4-5.9
			c0.6-1.5,1.1-3.1,1.8-4.6c-3.3,0.8-5.1,3-7,5.3c-0.8,1-1.6,2-2.5,2.8c-0.3,0.5-0.4,1.1-0.7,1.8c-0.3,0.8-0.6,1.7-1,2.4
			c-0.4,0.8-1.5,2.8-2.4,3.6c0,0-0.1,0.1-0.2,0.2c0.2,0.8-0.8,2-1.2,2.4c0,1.1-0.2,1.6-0.5,2.2c-0.1,0.2-0.1,0.4-0.2,0.7l-0.1,0.1
			c-1.2,1.3-2.2,3.4-3.2,5.7l-0.4,1c-0.8,2-1.8,3.8-2.7,5.6c-1.1,2.2-2.3,4.3-3,6.6l0,0.2l-0.2,0.1c-0.2,0.1-0.3,0.2-0.4,0.5
			C82.3,90.5,82.2,90.6,82.1,90.8 M93.6,65.2c-0.4,0.6-0.7,1.3-1.1,2l0,0c0.6-0.6,1.2-1.5,1.1-1.9C93.6,65.3,93.6,65.2,93.6,65.2
			 M94,64.5L94,64.5c0.8-0.8,1.9-2.7,2.3-3.4c0.3-0.6,0.7-1.5,1-2.3c0.2-0.6,0.4-1.1,0.7-1.6C96.4,59.6,95.1,62.2,94,64.5
			 M43.2,199.9c-5.1,0-8.2-0.8-10.2-2.6l-0.3-0.3l0.3-0.3c1.5-1.5,1.6-2.8,1.8-5.3c0-0.5,0.1-1.1,0.1-1.8c0.2-1.8,0.5-3.4,0.8-5
			c0.3-1.9,0.7-3.9,1-6.5c0.2-2.3,0.5-4.6,0.9-6.9c0.8-5.2,1.6-10.5,1.2-16.3v-1.4l1.2,0c2.8,1.2,6.8,3.9,8.8,6.7
			c4.1,5.5,5.3,16.8,4.3,24.7c-0.9,7.2-5,12.7-6.7,14.8l-0.1,0.1l-0.1,0C45,199.9,44,199.9,43.2,199.9 M33.8,197
			c1.8,1.5,4.8,2.2,9.4,2.2c0.8,0,1.8,0,2.8-0.1c1.7-2.1,5.5-7.5,6.4-14.3c1-7.6-0.1-18.7-4.1-24.1c-2-2.6-5.8-5.2-8.5-6.4h-0.3v0.6
			c0.4,5.9-0.3,11.2-1.1,16.4c-0.4,2.4-0.7,4.7-0.9,7c-0.2,2.7-0.6,4.6-1,6.6c-0.3,1.6-0.6,3.1-0.7,4.9c0,0.7-0.1,1.2-0.1,1.8
			C35.4,194,35.2,195.4,33.8,197 M66.4,130.8c-0.9,0-1.9-0.3-2.9-0.6c-1.1-0.3-2.2-0.6-3.4-0.7h-0.2l-0.1,0
			c-1.7-1.4-4.2-2.2-7.8-2.7l-1.2-0.2l1-0.6c1-0.5,2.1-1.1,3.1-1.6c3.5-1.7,7.1-3.5,9.7-6.3c0.2-0.1,0.3-0.2,0.5-0.2h0.2l0.2,0.2
			c0.1,0.3,0,0.6-0.7,2c-0.1,0.2-0.2,0.4-0.2,0.4v1.1c0,0.5,0,0.9,0,1.3c0.3,2.4,1.2,4.1,2.3,5.8c0.3,0.5,0.6,0.9,0.8,1.4l0.2,0.3
			l-0.4,0.2C67.2,130.7,66.8,130.8,66.4,130.8 M60.2,128.8c1.2,0.1,2.3,0.4,3.4,0.7c1.2,0.4,2.4,0.7,3.2,0.5c-0.2-0.3-0.4-0.7-0.6-1
			c-1-1.7-2.1-3.5-2.4-6.1c-0.1-0.5,0-1,0-1.4c0-0.4,0.1-0.7,0-1.1v-0.1l0-0.1c0-0.1,0.1-0.3,0.3-0.6c0,0,0.1-0.1,0.1-0.1
			c-2.5,2.3-5.8,3.9-8.9,5.5c-0.7,0.4-1.4,0.7-2.1,1.1C56.4,126.7,58.6,127.5,60.2,128.8"/>
		<path class="st0" d="M240.4,192.5c-2.8,1.3-3.2-2.3-5.9-2.1c0.1-0.6-0.4-0.7-0.3-1.4c0-0.5,0.1-0.6,0.3-0.7
			C236.6,188.1,241.7,189.3,240.4,192.5"/>
		<path class="st0" d="M239.3,193.2c-1,0-1.6-0.6-2.3-1.2c-0.7-0.6-1.3-1.2-2.3-1.2l-0.6,0l0.1-0.5c0-0.2-0.1-0.2-0.1-0.4
			c-0.1-0.2-0.3-0.5-0.2-0.9c-0.1-0.7,0.4-1,0.6-1.1c0.3,0,0.5-0.1,0.7-0.1c1.7,0,4.4,0.6,5.5,2.2c0.5,0.7,0.6,1.6,0.2,2.5l-0.1,0.1
			l-0.1,0.1C240.1,193.1,239.7,193.2,239.3,193.2 M234.9,190.1c1.2,0,1.9,0.7,2.6,1.3c0.8,0.7,1.5,1.2,2.6,0.8
			c0.3-0.6,0.2-1.2-0.2-1.7c-1-1.4-4-2-5.4-1.8c0,0,0,0,0,0.3v0.1v0.1c0,0.2,0.1,0.3,0.1,0.5C234.7,189.7,234.8,189.9,234.9,190.1"
			/>
		<path class="st0" d="M183,203.7c0.4-0.1,0.6,0.1,0.7,0.4c0.6,4-1,8.8-1.4,13.6c-0.4,5.2,0.3,10.6-1.8,14.3
			c-2.9-0.5-2.8-4.1-2.7-6.3c0-2.2,1.1-6,1.7-9.8C180.3,210.9,181,206.3,183,203.7"/>
		<path class="st0" d="M180.7,232.3l-0.2-0.1c-3.2-0.5-3.1-4.3-3.1-6.6c0-1.4,0.4-3.4,0.9-5.7c0.3-1.3,0.6-2.8,0.8-4.2l0.1-0.4
			c0.8-4.7,1.5-9.2,3.5-11.9l0.1-0.1l0.1,0c0.1,0,0.2,0,0.2,0c0.5,0,0.8,0.2,0.9,0.7c0.4,2.6-0.1,5.4-0.6,8.3
			c-0.3,1.8-0.6,3.6-0.8,5.4c-0.1,1.5-0.1,3-0.2,4.4c-0.1,3.8-0.1,7.3-1.6,10L180.7,232.3z M183.2,204c-1.7,2.5-2.5,6.8-3.2,11.4
			l-0.1,0.5c-0.3,1.4-0.6,2.9-0.8,4.2c-0.4,2.2-0.9,4.2-0.9,5.5c0,2.1-0.1,5.2,2.2,5.8c1.3-2.5,1.3-5.9,1.4-9.4c0-1.5,0-3,0.1-4.5
			c0.1-1.8,0.4-3.7,0.8-5.4c0.5-2.9,1-5.6,0.6-8.1C183.3,204.1,183.3,204,183.2,204"/>
		<path class="st0" d="M215.7,184.9c-2.6-3.1-7.1-3.7-11.5-3.5c-1.1-2.3-1.1-8.5,0-10.8c1.8,1,3.1,2.5,6.3,2.1
			c0.1-2.5,7.2,0.7,7.7-2.5c-2-3.8-8.7-2.9-13.6-3.8c0.9-2.3,0.2-6,1.4-8c3.7,0.8,5.3,6,9.4,6.3c1.3,0.1,2.7-0.8,4.2-1.1
			c1.3-0.2,2.2,1,3.1-0.3c-1.7-6.4-10.3-5-16-6.6c-0.1-0.8,1.6,0.2,1-1.1c-5.8-1.9-3.7,6.5-5.5,11.2c-1.3,0.8-2.8,1.4-3.5,2.8
			c1.3-0.2,1.8,0.5,2.4,1c-0.7,1.3-1.1,3.9-1.4,4.5c-3.3-6.6-8.7-11.2-14.3-15.6c-0.5-0.5-0.3-1.5-0.3-2.5
			c-3.9-2.9-7.1-6.6-11.9-8.7c-2.1-2.3-4.3-4.6-6.3-6.6c-0.9-0.9-1.9-1.5-2.8-2.1c-1.1-0.7-1.5-1.7-2.5-2.5
			c-3.3-2.7-7.8-4.7-8.7-9.4c1.3-0.6,2.1-0.7,3.5-0.4c5.1-2.3,11.5-6.5,13.2-12.2c1.8-5.7,0.7-13.5-1.7-17
			c-2.2-3.3-8.3-3.9-12.9-3.1c-0.1-2.5,3.9-3.9,1.3-5.6c-1.9,3-3.2,8.3-7.6,7.7c0,1.6,2.2,1.1,2.1,2.7c-3.8,6-7.2,12.3-10.4,18.9
			c0.4-8.4,2.3-16.5,2.5-24c0.6-1.5,2.3-1.8,2.4-3.8c-3.6-0.6-3.4,1.9-5.6,1.4c0,1.5-0.2,0.8-0.7,0.4c0.2,1.4,0.7,2.8,0.7,4.2
			c0.1,6-1.2,9.6-2.1,14.3c-0.5,2.7-0.5,6.2-1.1,8.7c-0.2,1-0.7,1.6-0.7,2.5c0.1,1.6,1.4,3,1.4,4.5c0,1.6-1.4,4-2.1,6.2
			c-2.8,9.4-4.5,18.1-6.6,26.1c-7.3-0.1-13.3,2.9-21.2,3.1c0.3-1.5-1.2-3-1.8-2.5c-0.4,6.1-2.5,12.6-3.5,19.9
			c-0.3,0.6-1.1,0.8-1.8,1.1c0,1.2,1.6,0.7,1.4,2.1c-0.1,6.1-5.9,13.8-3.8,18.8c0.9,2.2,1.8,4.4,3.8,4.8c1.2-1.6,2.3-3.5,3.5-5.2
			c0.8,0.4,2,0.5,3.1,0.7c0-1-0.2-2.1,0.7-2.1c4.1-0.2,6.6-2,10.8-2.1c0.9,1.4,3.1,2.4,4.9,1c-0.5-5.1,1.8-9.6,3.1-13.9
			c2.3-0.7,4.8-1,7.3-1.4c1.4,0.4,2.4,1.5,3.5,0.4c3.5,4.4,5.9,8.8,9.8,13.6c2.3,2.8,5.7,6.4,8.3,9c1.3,1.3,2.4,2.1,2.8,3.2
			c0.7,2.3-0.3,4.7-0.4,7c-0.1,1.7,0.2,3.5,0,4.5c-0.8,5.3-5.9,8.3-9.7,11.9c-1.9,1.7-3.3,3.2-5.2,4.5c-7.9,5.2-18.6,7.8-25.8,13.3
			c-0.9,0.6-1.6,1.6-2.5,2.4c-0.7,0.6-2.6,1.1-2.1,2.5c1.1-1.2,2.6-0.5,4.2-1c1.6-0.5,3.2-1.9,4.9-2.5c4.9-1.4,9.7,0.5,14.6,0
			c2.7-0.3,5.3-1.8,7.6-1.7c2.1,0.1,4,1.7,5.6,2.5c4.8-1.1,8.8-5.6,12.9-8.4c1.2-0.8,2.6-1.3,3.5-2.1c2.6-2.2,5.9-6.8,6.2-10.4
			c0.5-4.6-1.7-8.9-1.4-13.6c0.2-2.1,1-4.1,1-6.2c0-2.5-1.2-6.2-1-7.7c0.6-6,7.8-8.5,11.5-11.5c1.5-0.8,6.9-2.6,11.2-1.4
			c1.6-2.9,5.9-0.8,8.3-1.7c-3.1,15.3-7,28.8-6.6,45.6c1.7,1.2,1.5,4.2,2.8,5.6c0.5-0.6,0.3-1.8,1-2.1c1.1,0.4,2.1,0.9,3.5,1
			c3.7-1.9,2.5-8.3,3.1-12.5c2.8-0.4,8.9-0.8,11.5-1.4c-2.2-3.2-7.8-2.1-12.5-2.1c-0.5-1.1-0.4-2.7-0.4-4.1
			c2.6-1.6,8.6,0.1,10.8-1.8c-1.3-0.2-1.9-1.1-2.4-2.1c-3.9-0.4-6.2-0.3-10.1-0.4c0.4-1.6,0.2-1.8,0.3-3.8c0.8,0.5,2,0.6,2.8,1.1
			c0.9-4.2,9.1-2.6,11.5-4.2c-0.4-0.1-0.9-0.6-0.4-0.7c-1.4-2.3-9.7-0.8-13.6-1.7c1-3.8,1.5-8,1.7-12.5c0.4-0.7,1.3-0.8,1.8-1.4
			c-0.9-0.6-1.2-1.8-1.4-3.1c8.4-2.6,17.7,0.5,24.4,0.7c0.9-0.8,2-1.5,2.4-2.8C228.9,184.4,222.4,185.6,215.7,184.9 M120.3,193.2
			c-5.5,0-9.9,1.3-14.2,2.4c-0.7-3.1-0.1-9.3,0-12.2c1.3,0.1,2.5,0.3,3.5,0.7c3.4,0,6.6-3.8,9.7-3.5c1.9,0.2,2.2,1.8,4.2,2.4
			C122.3,186.4,121.3,189.8,120.3,193.2 M125.2,176.2c-7.1-1.3-13.3,1-19.1,2.1c0.7-3.7,0.4-9.9,1-14.6c5.9,2.2,13.9,0.6,20.5,0.4
			C127.5,168.8,125.9,172,125.2,176.2 M153,109.6c0.7-4.2-0.8-8.4,2.1-11.5c3.1-0.8,5.1-1.1,7.7-0.7c5.4,8.4,2.2,17.7-3.8,23.3
			c-3.3,3-8.4,6.3-12.9,4.5C147.1,120.2,152.1,115.4,153,109.6 M129.7,179.6c0.7-6.2,2.1-11.8,4.2-16.7c6.3-1.3,11.8-0.2,12.9,4.8
			c0.9,4.6-1.4,8.3-3.5,11.5C138.1,178.3,135.4,178.9,129.7,179.6 M186.1,181.4c-5.3,1.2-8.7,2.4-14.3,5.2
			c-4.7,4.4-8.4,9.7-11.5,15.7c-5.8-4.2-10.1-9.9-14.3-15.7c0.2-0.6-0.4-2,0.4-2.1c-0.2-1-1.3-1-2.1-1.5c0.6-1,2.1-1,3.5-1.4
			c3.2-4.9,6.4-10,2.4-17c-2.6-4.6-7.8-5.8-15.7-5.9c0.6-1.3,0.6-2.9,0.7-3.8c3.4-8,4.1-18.7,9.4-24.7h0.7c1,2.7,3.4,4.5,5.2,6.6
			c5.2,6.2,10.2,13.4,16,19.5c3.9,4.2,7,8.7,10.4,13.2c3.3,4.4,7.3,7.8,10.8,11.8C187.2,182.5,187.3,181.4,186.1,181.4"/>
		<path class="st0" d="M117.9,95.7c0,0.7-0.9,0.4-0.7,1.4C116.3,96.9,117,95.4,117.9,95.7"/>
		<path class="st0" d="M117.7,97.6l-0.6-0.2c-0.5-0.1-0.7-0.5-0.6-1c0-0.6,0.5-1.2,1.2-1.2c0.2,0,0.3,0.1,0.4,0.1l0.3,0.1v0.3
			c0,0.5-0.3,0.7-0.5,0.9c-0.2,0.1-0.3,0.2-0.2,0.4L117.7,97.6z"/>
		<path class="st0" d="M116.1,97.5c0.6,0.3,0.1,0.7,0,1.1C115.5,98.3,116.1,97.9,116.1,97.5"/>
		<path class="st0" d="M116.4,99.1l-0.5-0.2c-0.3-0.1-0.4-0.2-0.5-0.4c-0.1-0.3,0-0.5,0.1-0.8c0.1,0,0.1-0.2,0.1-0.2l0-0.4l0.5,0.2
			c0.2,0.1,0.4,0.2,0.5,0.5c0.1,0.3,0,0.5-0.2,0.7c0,0.1-0.1,0.2-0.1,0.3L116.4,99.1z"/>
		<path class="st0" d="M115.8,99.2C117.1,100.3,114.7,100.4,115.8,99.2"/>
		<path class="st0" d="M115.8,100.4c-0.3,0-0.5-0.2-0.6-0.4c-0.1-0.2-0.2-0.6,0.3-1.1l0.2-0.3l0.3,0.2c0.5,0.5,0.5,0.8,0.4,1.1
			C116.4,100.3,116.2,100.4,115.8,100.4"/>
		<path class="st0" d="M112.6,104.1c1.4,0,0.2,0.7,0.3,1.4C112.5,105.3,112.7,104.6,112.6,104.1"/>
		<path class="st0" d="M113.5,106l-0.6-0.2c-0.6-0.1-0.6-0.9-0.6-1.3c0-0.1,0-0.2,0-0.4l-0.1-0.4l0.4,0c0.1,0,0.2,0,0.2,0
			c0.3,0,0.7,0,0.9,0.3c0.2,0.3,0,0.6-0.1,0.8c-0.1,0.2-0.2,0.4-0.2,0.5L113.5,106z"/>
		<path class="st0" d="M114,104.4c0.6-0.1,0.8,2.3-0.3,1.7C113.4,105.2,114.2,105.3,114,104.4"/>
		<path class="st0" d="M114,106.6v-0.7v0.4v-0.4v0.4v-0.4c0-0.1,0.1-0.2,0.1-0.5c0-0.3-0.1-0.5-0.1-0.6c0,0,0,0.1,0,0.1l0.1-0.8
			c0.1,0,0.4,0.1,0.7,0.6c0.1,0.2,0.1,0.5,0.1,0.7C114.8,106.2,114.5,106.6,114,106.6"/>
		<path class="st0" d="M112.6,105.8c0.5,0.3,0.7,0.9,0.7,1.8h-1.4C112.3,107.1,112.3,106.3,112.6,105.8"/>
		<path class="st0" d="M113.7,108h-2.5l0.5-0.6c0.1-0.2,0.2-0.5,0.3-0.8c0.2-0.3,0.2-0.7,0.5-1l0.2-0.3l0.3,0.2
			c0.4,0.2,1,0.8,0.9,2.1V108z"/>
		<path class="st0" d="M112.3,108.3c1-0.5,1,1.6,0,1V108.3z"/>
		<path class="st0" d="M112.6,109.8V109c0.1,0,0.1-0.1,0.1-0.2v0c0-0.1-0.1-0.2-0.1-0.2l-0.1-0.8c0.5,0,0.8,0.4,0.8,1
			c0,0.2-0.1,0.5-0.2,0.6C113.1,109.6,112.9,109.8,112.6,109.8"/>
		<path class="st0" d="M118.9,92.2c0.4,0.1,0.3,0.7,0.7,0.7c0,1-0.9,1.2-1,2.1c-0.4-0.6-1.3-1.2-1.1,0.4c-1.4-0.4,0.1-2,1.1-2.1
			c-0.2,0.3-0.5,0.7,0,0.7C119.3,94,118.7,92.8,118.9,92.2"/>
		<path class="st0" d="M118.8,96.2l-0.6-1c-0.1-0.2-0.3-0.4-0.4-0.4c0,0.1,0,0.2,0,0.5l0.1,0.6l-0.6-0.2c-0.8-0.3-0.8-0.8-0.8-1.1
			c0.1-0.8,1.1-1.7,2-1.7c-0.1-0.3-0.1-0.6,0-0.8l0.1-0.3l0.3,0c0.4,0.1,0.5,0.4,0.6,0.6c0,0.1,0,0.1,0,0.1l0.4,0l0,0.3
			c0,0.7-0.3,1.1-0.6,1.4c-0.2,0.3-0.4,0.5-0.4,0.8L118.8,96.2z"/>
		<path class="st0" d="M136.7,102.3c-0.9,0.3,0.2-1.6-0.7-1.4c0.3,3.2-2.9,3.8-3.1,7.3c-1.3,0.3-1.5,1.8-2.8,2.1
			c0.2,4.2-5.1,5.7-6.6,9.4c-1.3-0.1-1.7,0.7-2.8,0.7c-1.9-2.7-3.3-6.1-4.2-9.7c3-6.6,4.7-12.3,3.1-19.5c0.3,0,0.3,0.4,0.4,0.7
			c0.2-2.9,5.6-4.2,7.3-1.4c-1.1-0.2-1.4,0.5-2.1,0.7c-0.4,6.7-1.7,13.2-2.4,20.6c6.9-4,11.8-10,15.3-17.5
			C141.3,96.6,136.6,99.1,136.7,102.3"/>
		<path class="st0" d="M120.5,120.9l-0.1-0.2c-1.9-2.6-3.3-6-4.2-9.9v-0.1l0-0.2c3.1-6.6,4.6-12.2,3.1-19.2l-0.1-0.4h0.5
			c0.1,0,0.2,0,0.3,0c0.7-1.4,2.6-2.3,4.3-2.3c1.5,0,2.8,0.7,3.4,1.8L128,91l-0.8-0.2c-0.6-0.1-0.8,0.1-1.2,0.3
			c-0.1,0.1-0.3,0.2-0.5,0.3c-0.2,3.7-0.7,7.3-1.2,11.1c-0.4,2.7-0.8,5.5-1.1,8.5c6.3-3.8,11-9.3,14.6-16.9l0.2-0.3l0.3,0.2
			c2.3,1.5,1.1,3.4,0.2,5c-0.7,1.1-1.4,2.2-1.4,3.4l0,0.3l-0.3,0.1c-0.3,0.1-0.5,0-0.6-0.1c-0.3,0.8-0.8,1.5-1.3,2.2
			c-0.7,0.9-1.5,1.9-1.6,3.5v0.3l-0.3,0c-0.6,0.1-0.9,0.5-1.2,0.9c-0.4,0.4-0.7,0.8-1.3,1.1c0,2.4-1.8,4-3.5,5.5
			c-1.2,1.1-2.6,2.3-3.2,3.7l-0.1,0.3l-0.3,0c-0.6,0-1,0.1-1.4,0.3c-0.4,0.1-0.8,0.4-1.3,0.4L120.5,120.9L120.5,120.9z M116.9,110.8
			c1,3.6,2.3,6.8,3.9,9.3c0.3-0.1,0.6-0.2,0.9-0.3c0.4-0.2,0.8-0.4,1.5-0.4c0.7-1.5,2-2.6,3.3-3.8c1.7-1.5,3.4-3,3.2-5.2v-0.3
			l0.3-0.1c0.6-0.1,0.8-0.5,1.2-0.9c0.4-0.4,0.7-0.9,1.3-1.1c0.2-1.6,1.1-2.7,1.7-3.6c0.8-1,1.5-1.9,1.4-3.4l0-0.3l0.3-0.1
			c0.3-0.1,0.6,0,0.7,0.2h0.1c0.3-0.8,0.7-1.5,1.2-2.2c1-1.7,1.5-2.7,0.4-3.7c-3.6,7.7-8.7,13.4-15.2,17.2l-0.6,0.4l0-0.8
			c0.3-3.2,0.7-6.3,1.2-9.2c0.5-3.9,1-7.5,1.3-11.2l0-0.3l0.2-0.1c0.2-0.1,0.4-0.2,0.6-0.3c0.2-0.2,0.5-0.3,0.9-0.4
			c-0.6-0.5-1.4-0.8-2.3-0.8c-1.8,0-3.7,1.1-3.8,2.6l-0.2,0.1C121.4,98.8,119.8,104.2,116.9,110.8"/>
		<path class="st0" d="M117,110.8c0.9,3.6,2.2,6.6,3.9,9.1c0.3-0.1,0.5-0.2,0.7-0.3c0.4-0.2,0.8-0.4,1.5-0.4
			c0.7-1.5,1.9-2.6,3.2-3.7c1.7-1.5,3.3-3,3.2-5.1l0-0.5l0.5-0.1c0.5-0.1,0.7-0.4,1.1-0.8c0.3-0.4,0.7-0.9,1.3-1.1
			c0.2-1.6,1.1-2.7,1.8-3.6c0.8-1,1.4-1.8,1.3-3.3l0-0.4l0.4-0.1c0.2-0.1,0.5,0,0.7,0.1c0.3-0.7,0.7-1.4,1.1-2
			c1-1.5,1.5-2.5,0.6-3.3c-3.6,7.5-8.8,13.3-15.2,17l-1,0.6l0.1-1.1c0.3-3.3,0.8-6.3,1.1-9.3c0.6-3.8,1-7.5,1.3-11.2l0-0.4l0.4-0.1
			c0.2,0,0.3-0.1,0.5-0.2c0.2-0.1,0.4-0.2,0.6-0.3c-0.5-0.4-1.2-0.6-2-0.6c-1.7,0-3.5,0.9-3.6,2.4l-0.3,0.1
			C121.6,98.8,120,104.3,117,110.8"/>
		<path class="st0" d="M120.7,120.3l-0.1-0.2c-1.7-2.5-3-5.6-3.9-9.2l0-0.1l0.1-0.1c2.9-6.4,4.5-11.8,3.2-18.5l-0.1-0.4l0.3,0
			c0.3-1.6,2.3-2.5,4-2.5c0.9,0,1.6,0.2,2.2,0.6l0.6,0.4l-0.7,0.2c-0.2,0.1-0.4,0.2-0.5,0.3l-0.1,0.1c-0.2,0.1-0.3,0.2-0.5,0.3
			l-0.1,0l-0.1,0.1c-0.2,3.6-0.7,7.1-1.3,11.2l-0.1,0.8c-0.4,2.7-0.8,5.5-1.1,8.5l-0.1,0.4l0.3-0.2c6.4-3.7,11.5-9.3,15.1-16.8
			l0.2-0.5l0.4,0.4c1,1.1,0.3,2.3-0.6,3.8c-0.4,0.6-0.8,1.2-1.1,1.9l-0.2,0.4l-0.3-0.2c-0.1-0.1-0.3-0.1-0.4,0l-0.1,0.1v0.1
			c0.1,1.6-0.6,2.5-1.4,3.5c-0.8,1-1.5,2-1.8,3.4v0.2l-0.2,0.1c-0.5,0.2-0.8,0.6-1.1,1c-0.3,0.4-0.7,0.9-1.3,1l-0.1,0v0.2
			c0.1,2.3-1.6,3.8-3.3,5.4c-1.2,1-2.5,2.1-3.2,3.6l-0.1,0.2h-0.2c-0.6,0-1,0.2-1.3,0.4c-0.3,0.1-0.5,0.2-0.8,0.3L120.7,120.3z
			 M117.5,110.8c0.9,3.3,2.1,6.3,3.6,8.6c0.1,0,0.2-0.1,0.4-0.1c0.4-0.2,0.8-0.4,1.4-0.5c0.8-1.5,2.1-2.6,3.2-3.6
			c1.6-1.5,3.2-2.9,3.1-4.8l-0.1-0.8l0.8-0.2c0.3-0.1,0.5-0.3,0.8-0.7c0.3-0.4,0.7-0.8,1.3-1.1c0.3-1.6,1.1-2.6,1.8-3.6
			c0.7-0.9,1.2-1.6,1.3-2.6c-3.2,4.7-7.2,8.4-11.8,11.1l-1.6,0.9l0.1-1.8c0.3-3,0.7-5.8,1.1-8.5l0.1-0.8c0.6-4.1,1-7.6,1.3-11.2
			l0.1-0.6l0.6-0.1c0.1,0,0.2-0.1,0.3-0.1l0.1-0.1c-0.3-0.2-0.7-0.2-1.2-0.2c-1.5,0-3.2,0.9-3.3,2.1v0.3l-0.1,0
			C121.9,99,120.3,104.6,117.5,110.8 M136.1,100c0,0,0.1,0,0.2,0c0.3-0.6,0.6-1.2,1-1.7c0.8-1.2,1.1-1.8,1-2.3
			C137.6,97.4,136.8,98.8,136.1,100L136.1,100L136.1,100z"/>
	</g>
	<g>
		<polygon class="st0" points="343.6,70.8 343.6,80.7 351.8,80.7 351.8,83.7 343.6,83.7 343.6,97.5 340.3,97.5 340.3,67.8 
			357.8,67.8 357.8,70.8 		"/>
		<path class="st0" d="M377.2,98c-7.4,0-12.3-6.3-12.3-15.3c0-9,5-15.4,12.4-15.4s12.3,6.3,12.3,15.3S384.6,98,377.2,98 M377.2,70.4
			c-5.1,0-8.9,4.8-8.9,12.3c0,7.5,3.9,12.3,9.1,12.3c5.1,0,8.9-4.8,8.9-12.3C386.3,75.3,382.4,70.4,377.2,70.4"/>
		<path class="st0" d="M418.3,97.5l-13-20.3c-0.6-1-1.7-3-2.1-3.7v2v22H400V67.8h3.2l12.9,20.7c0.6,1,1.7,3,2.1,3.7v-2.1V67.8h3.2
			v29.7L418.3,97.5L418.3,97.5z"/>
		<path class="st0" d="M440.3,97.5h-7.2V67.8h7.8c7.8,0,13.5,4.4,13.5,14.6C454.4,93.3,448.2,97.5,440.3,97.5 M440.7,70.8h-4.3v23.7
			h4.4c6.4,0,10.4-3.4,10.4-11.9C451.1,75,447.5,70.8,440.7,70.8"/>
		<path class="st0" d="M482.8,97.5l-2.6-7.6H468l-2.6,7.6H462l10.3-29.7h3.7l10.3,29.7H482.8z M476,77.2c-0.7-2-1.5-4.6-1.8-5.8
			c-0.3,1.2-1.1,3.9-1.9,5.9L469,87h10.2L476,77.2z"/>
		<polygon class="st0" points="503.3,70.8 503.3,97.5 500,97.5 500,70.8 491.3,70.8 491.3,67.8 512.1,67.8 512.1,70.8 		"/>
		<rect x="522.1" y="67.8" class="st0" width="3.3" height="29.7"/>
		<path class="st0" d="M548.3,98c-7.4,0-12.3-6.3-12.3-15.3c0-9,5-15.4,12.3-15.4c7.4,0,12.3,6.3,12.3,15.3S555.7,98,548.3,98
			 M548.3,70.4c-5.1,0-8.9,4.8-8.9,12.3c0,7.5,3.9,12.3,9.1,12.3c5.1,0,9-4.8,9-12.3C557.4,75.3,553.4,70.4,548.3,70.4"/>
		<path class="st0" d="M589.4,97.5l-13-20.3c-0.6-1-1.7-3-2.1-3.7v2v22h-3.2V67.8h3.2l12.9,20.7c0.6,1,1.7,3,2.1,3.7v-2.1V67.8h3.2
			v29.7L589.4,97.5L589.4,97.5z"/>
		<path class="st0" d="M351.1,147.4c-7.3,0-12-6.6-12-15.3c0-8.8,5-15.4,12.1-15.4c4.1,0,7.1,1.5,9.5,4.8l-2.6,2
			c-1.9-2.6-3.7-3.7-6.9-3.7c-5.1,0-8.7,5.1-8.7,12.3c0,7.3,3.8,12.3,8.8,12.3c3.2,0,5.4-1.4,7.3-3.9l2.3,2
			C358.6,145.4,355.4,147.4,351.1,147.4"/>
		<path class="st0" d="M382.9,147.4c-7.1,0-10.7-4.3-10.7-12.5v-17.7h3.3v17.6c0,6.4,2.5,9.6,7.6,9.6c5.1,0,7.2-3.1,7.2-9.5v-17.7
			h3.3v17.6C393.6,143.1,390,147.4,382.9,147.4"/>
		<polygon class="st0" points="406.9,147 406.9,117.3 410.2,117.3 410.2,143.9 424.9,143.9 424.9,147 		"/>
		<polygon class="st0" points="442.4,120.3 442.4,147 439.1,147 439.1,120.3 430.4,120.3 430.4,117.3 451.2,117.3 451.2,120.3 		"/>
		<path class="st0" d="M473.4,147.4c-7.1,0-10.7-4.3-10.7-12.5v-17.7h3.3v17.6c0,6.4,2.5,9.6,7.6,9.6c5.1,0,7.2-3.1,7.2-9.5v-17.7
			h3.3v17.6C484.1,143.1,480.6,147.4,473.4,147.4"/>
		<path class="st0" d="M511.5,134.1L518,147h-3.8l-6.4-12.6h-7V147h-3.3v-29.7h11.8c5.2,0,9.2,2.7,9.2,8.4
			C518.5,130.3,515.7,133.2,511.5,134.1 M509.1,120.3h-8.3v11.1h7.9c4.4,0,6.5-1.8,6.5-5.6C515.2,122.1,513,120.3,509.1,120.3"/>
		<polygon class="st0" points="530.8,147 530.8,117.3 548.8,117.3 548.8,120.3 534.1,120.3 534.1,129.6 542.6,129.6 542.6,132.6 
			534.1,132.6 534.1,143.9 549.4,143.9 549.4,147 		"/>
		<path class="st0" d="M588.8,147l-2.4-3.1c-2.2,2.2-4.8,3.6-8,3.6c-6.5,0-8.9-3.7-8.9-8c0-4.4,2.5-6.8,6.7-9l-1-1.4
			c-1.5-2-2.6-3.7-2.6-5.9c0-3.7,2.9-6.4,7.5-6.4c3.3,0,5.8,1,7.9,2.7l-1.7,2.6c-2.2-1.7-3.9-2.4-6.2-2.4c-2.6,0-4.2,1.4-4.2,3.4
			c0,1.6,0.6,2.7,1.8,4.1l9,11.8c0.8-1.5,1.5-3.3,2-5.2l2.8,0.9c-0.7,2.5-1.7,4.8-3,6.8l4.3,5.6L588.8,147L588.8,147z M577.8,132.7
			c-3.7,1.7-5.2,3.8-5.2,6.7c0,2.9,2,5.2,5.8,5.2c2.6,0,4.6-1.1,6.2-2.9L577.8,132.7z"/>
		<path class="st0" d="M347.6,196.4h-7.3v-29.7h7.8c7.8,0,13.5,4.5,13.5,14.6C361.7,192.1,355.5,196.4,347.6,196.4 M347.9,169.7
			h-4.3v23.7h4.4c6.4,0,10.4-3.4,10.4-11.9C358.4,173.8,354.7,169.7,347.9,169.7"/>
		<rect x="375" y="166.7" class="st0" width="3.3" height="29.7"/>
		<path class="st0" d="M404.9,196.4h-3.6l-10.1-29.7h3.5l6.6,20.3c0.6,1.8,1.5,4.8,1.8,5.8c0.3-1.1,1.3-4.2,1.9-5.9l6.7-20.2h3.4
			L404.9,196.4z"/>
		<polygon class="st0" points="427.7,196.4 427.7,166.7 445.7,166.7 445.7,169.7 431,169.7 431,179 439.5,179 439.5,182 431,182 
			431,193.4 446.3,193.4 446.3,196.4 		"/>
		<path class="st0" d="M473.2,183.5l6.5,12.9h-3.8l-6.4-12.6h-7v12.6h-3.3v-29.7h11.8c5.2,0,9.2,2.7,9.2,8.4
			C480.2,179.7,477.4,182.6,473.2,183.5 M470.8,169.7h-8.3v11.1h7.9c4.4,0,6.5-1.8,6.5-5.6C476.9,171.6,474.7,169.7,470.8,169.7"/>
		<path class="st0" d="M501.7,196.8c-4,0-7.6-1.7-10-4.1l2.2-2.5c2.2,2.2,4.8,3.6,7.9,3.6c3.9,0,6.4-2,6.4-5.1
			c0-2.7-1.7-4.3-7.1-6.3c-6.4-2.3-8.6-4.4-8.6-8.7c0-4.7,3.7-7.6,9.3-7.6c4,0,6.5,1.2,9,3.2l-2.1,2.6c-2.2-1.8-4.2-2.8-7.1-2.8
			c-4.1,0-5.8,2-5.8,4.4c0,2.5,1.1,3.9,7.1,6c6.6,2.4,8.6,4.6,8.6,9C511.5,193.2,507.9,196.8,501.7,196.8"/>
		<rect x="525.1" y="166.7" class="st0" width="3.3" height="29.7"/>
		<polygon class="st0" points="553.2,169.7 553.2,196.4 549.9,196.4 549.9,169.7 541.2,169.7 541.2,166.7 562,166.7 562,169.7 		"/>
		<path class="st0" d="M574.5,196.4v-29.7h17.9v3h-14.6v9.3h8.5v3h-8.5v11.3h15.3v3L574.5,196.4L574.5,196.4z M583.9,164.8h-2.5
			l4.4-6.8h4.5L583.9,164.8z"/>
	</g>
</g>
</svg>
