<?xml version="1.0" encoding="utf-8"?>
<!-- Generator: Adobe Illustrator 21.0.0, SVG Export Plug-In . SVG Version: 6.00 Build 0)  -->
<svg version="1.1" id="Layer_1" xmlns="http://www.w3.org/2000/svg" xmlns:xlink="http://www.w3.org/1999/xlink" x="0px" y="0px"
	 viewBox="0 0 7.1 7" style="enable-background:new 0 0 7.1 7;" xml:space="preserve">
<g>
	<path d="M3.9,0.2c0.3,0,0.6,0.2,0.6,0.5v3.2l1.3-1.3C5.9,2.5,6,2.4,6.2,2.4c0.2,0,0.3,0.1,0.4,0.2l0.3,0.3C7,3,7.1,3.2,7.1,3.3
		c0,0.2-0.1,0.3-0.2,0.4L4,6.6C3.9,6.7,3.7,6.8,3.6,6.8S3.3,6.7,3.2,6.6L0.2,3.7C0.1,3.6,0.1,3.5,0.1,3.3c0-0.2,0.1-0.3,0.2-0.4
		l0.3-0.3C0.7,2.5,0.8,2.4,1,2.4s0.3,0.1,0.4,0.2l1.3,1.3V0.7c0-0.3,0.3-0.5,0.6-0.5H3.9z"/>
</g>
</svg>
