<?xml version="1.0" encoding="utf-8"?>
<!-- Generator: Adobe Illustrator 21.0.0, SVG Export Plug-In . SVG Version: 6.00 Build 0)  -->
<svg version="1.1" id="Layer_1" xmlns="http://www.w3.org/2000/svg" xmlns:xlink="http://www.w3.org/1999/xlink" x="0px" y="0px"
	 viewBox="0 0 19.4 16.5" style="enable-background:new 0 0 19.4 16.5;" xml:space="preserve">
<path d="M10.9,8.2l6.5-6.5c0.3-0.3,0.3-0.9,0-1.2s-0.9-0.3-1.2,0L9.7,7.1L3.2,0.5C2.8,0.2,2.3,0.2,2,0.5S1.7,1.4,2,1.7l6.5,6.5
	L2,14.8c-0.3,0.3-0.3,0.9,0,1.2c0.2,0.2,0.4,0.2,0.6,0.2S3,16.1,3.2,16l6.5-6.5l6.5,6.5c0.2,0.2,0.4,0.2,0.6,0.2s0.4-0.1,0.6-0.2
	c0.3-0.3,0.3-0.9,0-1.2L10.9,8.2z"/>
</svg>
