<?xml version="1.0" encoding="utf-8"?>
<!-- Generator: Adobe Illustrator 21.0.0, SVG Export Plug-In . SVG Version: 6.00 Build 0)  -->
<svg version="1.1" id="Layer_1" xmlns="http://www.w3.org/2000/svg" xmlns:xlink="http://www.w3.org/1999/xlink" x="0px" y="0px"
	 viewBox="0 0 19.4 16.5" style="enable-background:new 0 0 19.4 16.5;" xml:space="preserve">
<g>
	<g>
		<path d="M18.2,3.2H1.2c-0.4,0-0.8-0.4-0.8-0.8s0.4-0.8,0.8-0.8h16.9C18.6,1.7,19,2,19,2.4S18.6,3.2,18.2,3.2z"/>
	</g>
	<g>
		<path d="M18.2,9H1.2C0.8,9,0.5,8.7,0.5,8.3s0.4-0.8,0.8-0.8h16.9c0.4,0,0.8,0.4,0.8,0.8S18.6,9,18.2,9z"/>
	</g>
	<g>
		<path d="M18.2,14.8H1.2c-0.4,0-0.8-0.4-0.8-0.8c0-0.4,0.4-0.8,0.8-0.8h16.9c0.4,0,0.8,0.4,0.8,0.8C19,14.5,18.6,14.8,18.2,14.8z"
			/>
	</g>
</g>
</svg>
