<?xml version="1.0" encoding="utf-8"?>
<!-- Generator: Adobe Illustrator 21.0.0, SVG Export Plug-In . SVG Version: 6.00 Build 0)  -->
<svg version="1.1" id="Layer_1" xmlns="http://www.w3.org/2000/svg" xmlns:xlink="http://www.w3.org/1999/xlink" x="0px" y="0px"
	 viewBox="0 0 20 20" style="enable-background:new 0 0 20 20;" xml:space="preserve">
<style type="text/css">
	.st0{fill:#181AC0;}
</style>
<path class="st0" d="M17.2,0.7l-14.4,0c-1.2,0-2.1,0.9-2.1,2.1l0,14.4c0,1.2,0.9,2.1,2.1,2.1l14.4,0c1.2,0,2.1-0.9,2.1-2.1l0-14.4
	C19.3,1.7,18.4,0.7,17.2,0.7z M6.5,16.2l-2.8,0l0-8.3l2.8,0L6.5,16.2z M5.1,6.8L5.1,6.8c-0.9,0-1.5-0.6-1.5-1.4
	c0-0.8,0.6-1.4,1.6-1.4c0.9,0,1.5,0.6,1.5,1.4C6.7,6.1,6.1,6.8,5.1,6.8z M16.4,16.2l-2.8,0l0-4.4c0-1.1-0.4-1.9-1.4-1.9
	c-0.8,0-1.2,0.5-1.4,1c-0.1,0.2-0.1,0.4-0.1,0.7l0,4.6l-2.8,0C8,8.7,8,7.9,8,7.9l2.8,0l0,1.2c0.4-0.6,1-1.4,2.5-1.4
	c1.8,0,3.2,1.2,3.2,3.7L16.4,16.2z"/>
</svg>
