<?xml version="1.0" encoding="utf-8"?>
<!-- Generator: Adobe Illustrator 21.0.0, SVG Export Plug-In . SVG Version: 6.00 Build 0)  -->
<svg version="1.1" id="Layer_1" xmlns="http://www.w3.org/2000/svg" xmlns:xlink="http://www.w3.org/1999/xlink" x="0px" y="0px"
	 viewBox="0 0 19.4 16.5" style="enable-background:new 0 0 19.4 16.5;" xml:space="preserve">
<g>
	<path d="M15.6,16.4c-0.3,0-0.6-0.1-0.9-0.4l-3.3-3.3C10.3,13.5,9,14,7.6,14c-3.7,0-6.8-3-6.8-6.8s3-6.8,6.8-6.8s6.8,3,6.8,6.8
		c0,1.4-0.4,2.7-1.2,3.8l3.3,3.3c0.2,0.2,0.4,0.5,0.4,0.9C16.8,15.9,16.3,16.4,15.6,16.4z M7.6,2.9c-2.4,0-4.3,1.9-4.3,4.3
		s1.9,4.3,4.3,4.3s4.3-1.9,4.3-4.3S10,2.9,7.6,2.9z"/>
</g>
</svg>
