<?xml version="1.0" encoding="utf-8"?>
<!-- Generator: Adobe Illustrator 21.0.0, SVG Export Plug-In . SVG Version: 6.00 Build 0)  -->
<svg version="1.1" id="Layer_1" xmlns="http://www.w3.org/2000/svg" xmlns:xlink="http://www.w3.org/1999/xlink" x="0px" y="0px"
	 viewBox="0 0 7.1 7" style="enable-background:new 0 0 7.1 7;" xml:space="preserve">
<style type="text/css">
	.st0{fill-rule:evenodd;clip-rule:evenodd;fill:#F2F2F2;}
</style>
<path class="st0" d="M3.6,0.2c-1.8,0-3.3,1.5-3.3,3.3s1.5,3.3,3.3,3.3s3.3-1.5,3.3-3.3S5.4,0.2,3.6,0.2z M4,4.4c0-0.3,0-0.5,0-0.8
	C2.9,3.7,2.3,4.4,2.1,5.3C1.4,4,2.5,2.6,3.8,2.5C3.6,2.2,3.5,1.9,3.4,1.6c0.8,0.3,1.5,0.7,2.3,1C5.1,3.2,4.6,3.8,4,4.4z"/>
</svg>
