<?xml version="1.0" encoding="utf-8"?>
<!-- Generator: Adobe Illustrator 21.0.0, SVG Export Plug-In . SVG Version: 6.00 Build 0)  -->
<svg version="1.1" id="Layer_1" xmlns="http://www.w3.org/2000/svg" xmlns:xlink="http://www.w3.org/1999/xlink" x="0px" y="0px"
	 viewBox="0 0 19.4 16.5" style="enable-background:new 0 0 19.4 16.5;" xml:space="preserve">
<style type="text/css">
	.st0{fill:#181AC0;}
</style>
<g>
	<path class="st0" d="M16.8,4.6c0,0.2,0,0.3,0,0.5c0,4.8-3.7,10.4-10.5,10.4c-2.1,0-4-0.6-5.6-1.7c0.3,0,0.6,0,0.9,0
		c1.7,0,3.3-0.6,4.6-1.6c-1.6,0-3-1.1-3.4-2.6c0.2,0,0.5,0.1,0.7,0.1c0.3,0,0.7,0,1-0.1C2.7,9.4,1.5,7.9,1.5,6.1c0,0,0,0,0,0
		C2,6.3,2.5,6.5,3.1,6.5c-1-0.7-1.6-1.8-1.6-3.1c0-0.7,0.2-1.3,0.5-1.8c1.8,2.2,4.5,3.7,7.5,3.9C9.5,5.2,9.5,4.9,9.5,4.7
		c0-2,1.6-3.7,3.7-3.7c1.1,0,2,0.4,2.7,1.2c0.8-0.2,1.6-0.5,2.3-0.9c-0.3,0.9-0.9,1.6-1.6,2C17.3,3.2,18,3,18.7,2.7
		C18.2,3.5,17.5,4.1,16.8,4.6z"/>
</g>
</svg>
