<?xml version="1.0" encoding="utf-8"?>
<!-- Generator: Adobe Illustrator 21.0.0, SVG Export Plug-In . SVG Version: 6.00 Build 0)  -->
<svg version="1.1" id="Layer_1" xmlns="http://www.w3.org/2000/svg" xmlns:xlink="http://www.w3.org/1999/xlink" x="0px" y="0px"
	 viewBox="0 0 20 20" style="enable-background:new 0 0 20 20;" xml:space="preserve">
<style type="text/css">
	.st0{fill:#181AC0;}
</style>
<g>
	<path class="st0" d="M19.3,9.8c0,5-4.1,9.1-9.1,9c-1.5,0-3-0.4-4.4-1.1l-5,1.6l1.6-4.9c-0.9-1.4-1.3-3-1.3-4.7c0-5,4.1-9.1,9.1-9
		C15.2,0.7,19.3,4.8,19.3,9.8z M17.7,9.8c0-4.2-3.4-7.6-7.5-7.6C6,2.2,2.6,5.6,2.6,9.8c0,1.6,0.5,3.1,1.4,4.4l-1,2.8L6,16.1
		c1.2,0.8,2.7,1.3,4.1,1.3C14.3,17.3,17.7,14,17.7,9.8z M14.9,12.1c0,0.1,0,0.1,0,0.2c0,0.3-0.1,0.6-0.2,0.9
		c-0.3,0.7-1.4,1.1-2.1,1.1c-0.6,0-1.8-0.5-2.3-0.8c-1.7-0.8-2.8-2.1-3.8-3.7C6,9.2,5.6,8.4,5.7,7.6l0-0.1c0-0.8,0.3-1.4,0.9-1.9
		c0.2-0.2,0.4-0.3,0.6-0.3c0.1,0,0.3,0,0.4,0c0.3,0,0.4,0.1,0.5,0.4c0.1,0.2,0.7,1.8,0.7,2C8.8,8.2,8,8.7,8,9C8,9,8,9.1,8,9.2
		c0.3,0.6,0.8,1.2,1.2,1.7c0.6,0.5,1.1,0.9,1.8,1.2c0.1,0,0.2,0.1,0.3,0.1c0.4,0,1-1.2,1.3-1.2C12.8,11,14.8,12,14.9,12.1z"/>
</g>
</svg>
