<?xml version="1.0" encoding="utf-8"?>
<!-- Generator: Adobe Illustrator 21.0.0, SVG Export Plug-In . SVG Version: 6.00 Build 0)  -->
<svg version="1.1" id="Layer_1" xmlns="http://www.w3.org/2000/svg" xmlns:xlink="http://www.w3.org/1999/xlink" x="0px" y="0px"
	 viewBox="0 0 20 20" style="enable-background:new 0 0 20 20;" xml:space="preserve">
<style type="text/css">
	.st0{fill:#181AC0;}
</style>
<g>
	<path class="st0" d="M18.3,18.1c-0.2,0.9-0.9,1.5-1.8,1.6c-2.1,0.2-4.1,0.2-6.2,0.2s-4.1,0-6.2-0.2c-0.9-0.1-1.6-0.7-1.8-1.6
		C2,16.8,2,15.5,2,14.2c0-1.3,0-2.7,0.3-3.9c0.2-0.9,0.9-1.5,1.8-1.6c2-0.2,4.1-0.2,6.2-0.2s4.1,0,6.2,0.2c0.9,0.1,1.6,0.7,1.8,1.6
		c0.3,1.2,0.3,2.6,0.3,3.9C18.6,15.5,18.5,16.8,18.3,18.1z M6.7,11.4v-1H3.3v1h1.2v6.3h1.1v-6.3H6.7z M8.6-0.1L7.2,4.4v3H6.1v-3
		C6,3.8,5.8,3.1,5.4,2C5.2,1.3,4.9,0.6,4.7-0.1h1.2l0.8,2.9l0.8-2.9H8.6z M9.8,17.7v-5.5h-1v4.2c-0.2,0.3-0.4,0.5-0.6,0.5
		c-0.1,0-0.2-0.1-0.2-0.2c0,0,0-0.2,0-0.4v-4.1h-1v4.4c0,0.4,0,0.6,0.1,0.8c0.1,0.3,0.3,0.4,0.6,0.4c0.4,0,0.7-0.2,1.1-0.7v0.6H9.8z
		 M11.6,5.6c0,0.6-0.1,1-0.3,1.3c-0.3,0.4-0.7,0.6-1.2,0.6c-0.5,0-0.9-0.2-1.2-0.6C8.7,6.6,8.6,6.2,8.6,5.6v-2c0-0.6,0.1-1,0.3-1.3
		C9.2,2,9.6,1.8,10.1,1.8c0.5,0,0.9,0.2,1.2,0.6c0.2,0.3,0.3,0.7,0.3,1.3V5.6z M10.5,3.5c0-0.5-0.1-0.8-0.5-0.8
		c-0.3,0-0.5,0.3-0.5,0.8v2.3c0,0.5,0.2,0.8,0.5,0.8c0.3,0,0.5-0.3,0.5-0.8V3.5z M13.5,13.9c0-0.5,0-0.9-0.1-1.1
		c-0.1-0.4-0.4-0.6-0.8-0.6c-0.4,0-0.7,0.2-1,0.6v-2.4h-1v7.4h1v-0.5c0.3,0.4,0.7,0.6,1,0.6c0.4,0,0.7-0.2,0.8-0.6
		c0.1-0.2,0.1-0.6,0.1-1.1V13.9z M12.6,16.2c0,0.5-0.1,0.7-0.4,0.7c-0.2,0-0.3-0.1-0.5-0.2v-3.4c0.2-0.2,0.3-0.2,0.5-0.2
		c0.3,0,0.4,0.3,0.4,0.7V16.2z M15.3,7.4h-1V6.8c-0.4,0.5-0.8,0.7-1.1,0.7c-0.3,0-0.6-0.1-0.7-0.4c-0.1-0.2-0.1-0.4-0.1-0.8V1.8h1
		v4.1c0,0.2,0,0.4,0,0.4c0,0.2,0.1,0.2,0.2,0.2c0.2,0,0.4-0.2,0.6-0.5V1.8h1V7.4z M17.3,15.8h-1c0,0.4,0,0.6,0,0.7
		c-0.1,0.3-0.2,0.4-0.4,0.4c-0.3,0-0.5-0.3-0.5-0.8v-1h2V14c0-0.6-0.1-1-0.3-1.3c-0.3-0.4-0.7-0.6-1.2-0.6c-0.5,0-0.9,0.2-1.2,0.6
		c-0.2,0.3-0.3,0.7-0.3,1.3V16c0,0.6,0.1,1,0.3,1.3c0.3,0.4,0.7,0.6,1.2,0.6c0.5,0,0.9-0.2,1.2-0.6c0.1-0.2,0.2-0.4,0.2-0.6
		c0-0.1,0-0.3,0-0.6V15.8z M16.3,14.3h-1v-0.5c0-0.5,0.2-0.8,0.5-0.8c0.3,0,0.5,0.3,0.5,0.8V14.3z"/>
</g>
</svg>
